STARTFONT 2.1
COMMENT $Xorg: $
COMMENT ISO10646-1 extension by Markus Kuhn <mkuhn@acm.org>, 2001-03-20
COMMENT  (c) Copyright Bigelow & Holmes 1986, 1985. Lucida is a registered
COMMENT  trademark of Bigelow & Holmes. See LEGAL NOTICE file for terms 
COMMENT  of the license. 
FONT -B&H-LucidaBright-Medium-R-Normal--14-100-100-100-P-80-ISO10646-1
SIZE 10 100 100
FONTBOUNDINGBOX 22 21 -8 -6
STARTPROPERTIES 22
COMMENT Begin LogicalFontDescription
FONTNAME_REGISTRY ""
FOUNDRY "B&H"
FAMILY_NAME "LucidaBright"
WEIGHT_NAME "Medium"
SLANT "R"
SETWIDTH_NAME "Normal"
ADD_STYLE_NAME ""
PIXEL_SIZE 14
POINT_SIZE 100
RESOLUTION_X 100
RESOLUTION_Y 100
SPACING "P"
AVERAGE_WIDTH 80
CHARSET_REGISTRY "ISO10646"
CHARSET_ENCODING "1"
COMMENT END LogicalFontDescription
FONT_ASCENT 13
FONT_DESCENT 3
DEFAULT_CHAR 0
COPYRIGHT "Copyright Bigelow & Holmes 1986, 1985."
FACE_NAME "Lucida Bright"
X_HEIGHT 7
CAP_HEIGHT 10
ENDPROPERTIES
CHARS 756
STARTCHAR char0
ENCODING 0
SWIDTH 771 0
DWIDTH 11 0
BBX 9 9 0 0
BITMAP
AA80
0000
8080
0000
8080
0000
8080
0000
AA80
ENDCHAR
STARTCHAR space
ENCODING 32
SWIDTH 333 0
DWIDTH 4 0
BBX 1 1 0 0
BITMAP
00
ENDCHAR
STARTCHAR exclam
ENCODING 33
SWIDTH 265 0
DWIDTH 4 0
BBX 1 10 1 0
BITMAP
80
80
80
80
80
80
80
00
00
80
ENDCHAR
STARTCHAR quotedbl
ENCODING 34
SWIDTH 386 0
DWIDTH 5 0
BBX 3 3 1 7
BITMAP
A0
A0
A0
ENDCHAR
STARTCHAR numbersign
ENCODING 35
SWIDTH 608 0
DWIDTH 9 0
BBX 9 10 0 0
BITMAP
0900
1A00
1200
7F80
1200
2400
FF00
2400
2C00
4800
ENDCHAR
STARTCHAR dollar
ENCODING 36
SWIDTH 608 0
DWIDTH 9 0
BBX 5 13 2 -2
BITMAP
20
78
A8
A8
A0
60
30
28
A8
A8
F0
20
20
ENDCHAR
STARTCHAR percent
ENCODING 37
SWIDTH 675 0
DWIDTH 9 0
BBX 11 10 0 0
BITMAP
7060
88C0
8980
8B00
7600
0DC0
1A20
3220
6220
C1C0
ENDCHAR
STARTCHAR ampersand
ENCODING 38
SWIDTH 690 0
DWIDTH 10 0
BBX 10 10 0 0
BITMAP
1C00
2200
2200
3200
7C00
89C0
8480
8280
C100
7FC0
ENDCHAR
STARTCHAR quotesingle
ENCODING 39
SWIDTH 241 0
DWIDTH 3 0
BBX 3 3 0 7
BITMAP
E0
E0
40
ENDCHAR
STARTCHAR parenleft
ENCODING 40
SWIDTH 316 0
DWIDTH 4 0
BBX 3 13 1 -3
BITMAP
20
40
40
80
80
80
80
80
80
80
40
40
20
ENDCHAR
STARTCHAR parenright
ENCODING 41
SWIDTH 316 0
DWIDTH 4 0
BBX 3 13 1 -3
BITMAP
80
40
40
20
20
20
20
20
20
20
40
80
80
ENDCHAR
STARTCHAR asterisk
ENCODING 42
SWIDTH 470 0
DWIDTH 7 0
BBX 5 5 1 5
BITMAP
20
A8
50
50
50
ENDCHAR
STARTCHAR plus
ENCODING 43
SWIDTH 608 0
DWIDTH 9 0
BBX 9 8 0 0
BITMAP
0800
0800
0800
0800
FF80
0800
0800
0800
ENDCHAR
STARTCHAR comma
ENCODING 44
SWIDTH 265 0
DWIDTH 4 0
BBX 2 5 1 -3
BITMAP
C0
C0
40
40
80
ENDCHAR
STARTCHAR hyphen
ENCODING 45
SWIDTH 325 0
DWIDTH 5 0
BBX 3 1 1 4
BITMAP
E0
ENDCHAR
STARTCHAR period
ENCODING 46
SWIDTH 265 0
DWIDTH 4 0
BBX 2 1 1 0
BITMAP
C0
ENDCHAR
STARTCHAR slash
ENCODING 47
SWIDTH 512 0
DWIDTH 7 0
BBX 7 13 0 -3
BITMAP
02
04
04
08
08
18
10
30
20
20
40
40
80
ENDCHAR
STARTCHAR zero
ENCODING 48
SWIDTH 608 0
DWIDTH 9 0
BBX 7 10 1 0
BITMAP
38
44
82
82
82
82
82
82
44
38
ENDCHAR
STARTCHAR one
ENCODING 49
SWIDTH 608 0
DWIDTH 9 0
BBX 5 10 2 0
BITMAP
E0
20
20
20
20
20
20
20
20
F8
ENDCHAR
STARTCHAR two
ENCODING 50
SWIDTH 608 0
DWIDTH 9 0
BBX 6 10 1 0
BITMAP
78
8C
84
04
0C
18
20
40
80
FC
ENDCHAR
STARTCHAR three
ENCODING 51
SWIDTH 608 0
DWIDTH 9 0
BBX 6 10 1 0
BITMAP
F8
84
84
04
78
0C
04
84
8C
F8
ENDCHAR
STARTCHAR four
ENCODING 52
SWIDTH 608 0
DWIDTH 9 0
BBX 7 10 1 0
BITMAP
0C
0C
14
24
44
C4
FE
04
04
0E
ENDCHAR
STARTCHAR five
ENCODING 53
SWIDTH 608 0
DWIDTH 9 0
BBX 5 10 2 0
BITMAP
F8
80
80
E0
10
08
08
88
90
F0
ENDCHAR
STARTCHAR six
ENCODING 54
SWIDTH 608 0
DWIDTH 9 0
BBX 7 10 1 0
BITMAP
3E
42
C2
80
BC
C2
82
82
46
3C
ENDCHAR
STARTCHAR seven
ENCODING 55
SWIDTH 608 0
DWIDTH 9 0
BBX 6 10 2 0
BITMAP
FC
04
08
10
10
20
60
40
C0
80
ENDCHAR
STARTCHAR eight
ENCODING 56
SWIDTH 608 0
DWIDTH 9 0
BBX 7 10 1 0
BITMAP
7C
C6
82
C2
7C
8C
82
82
C6
7C
ENDCHAR
STARTCHAR nine
ENCODING 57
SWIDTH 608 0
DWIDTH 9 0
BBX 7 10 1 0
BITMAP
78
C4
82
82
86
7A
02
84
84
F8
ENDCHAR
STARTCHAR colon
ENCODING 58
SWIDTH 265 0
DWIDTH 4 0
BBX 1 7 1 0
BITMAP
80
00
00
00
00
00
80
ENDCHAR
STARTCHAR semicolon
ENCODING 59
SWIDTH 265 0
DWIDTH 4 0
BBX 1 10 1 -3
BITMAP
80
00
00
00
00
00
80
80
80
80
ENDCHAR
STARTCHAR less
ENCODING 60
SWIDTH 608 0
DWIDTH 9 0
BBX 8 8 0 0
BITMAP
01
06
18
E0
60
18
06
01
ENDCHAR
STARTCHAR equal
ENCODING 61
SWIDTH 608 0
DWIDTH 9 0
BBX 8 4 0 2
BITMAP
FF
00
00
FF
ENDCHAR
STARTCHAR greater
ENCODING 62
SWIDTH 608 0
DWIDTH 9 0
BBX 8 8 0 0
BITMAP
80
60
18
06
07
18
60
80
ENDCHAR
STARTCHAR question
ENCODING 63
SWIDTH 480 0
DWIDTH 7 0
BBX 5 10 1 0
BITMAP
F0
88
88
08
10
20
20
20
00
20
ENDCHAR
STARTCHAR at
ENCODING 64
SWIDTH 873 0
DWIDTH 12 0
BBX 11 10 1 0
BITMAP
0F80
30C0
6720
4A20
9220
9220
9740
9DC0
6200
3C00
ENDCHAR
STARTCHAR A
ENCODING 65
SWIDTH 744 0
DWIDTH 10 0
BBX 10 10 0 0
BITMAP
0800
0C00
1C00
1400
1200
2200
3F00
4100
4180
E3C0
ENDCHAR
STARTCHAR B
ENCODING 66
SWIDTH 609 0
DWIDTH 9 0
BBX 7 10 1 0
BITMAP
FC
42
42
44
7C
46
42
42
46
FC
ENDCHAR
STARTCHAR C
ENCODING 67
SWIDTH 695 0
DWIDTH 10 0
BBX 8 10 1 0
BITMAP
1F
61
41
80
80
80
80
40
61
3E
ENDCHAR
STARTCHAR D
ENCODING 68
SWIDTH 768 0
DWIDTH 11 0
BBX 9 10 1 0
BITMAP
FE00
4300
4180
4080
4080
4080
4080
4080
4100
FE00
ENDCHAR
STARTCHAR E
ENCODING 69
SWIDTH 566 0
DWIDTH 8 0
BBX 6 10 1 0
BITMAP
FC
44
40
48
78
48
40
40
44
FC
ENDCHAR
STARTCHAR F
ENCODING 70
SWIDTH 548 0
DWIDTH 8 0
BBX 7 10 0 0
BITMAP
FE
42
40
44
7C
44
40
40
40
F0
ENDCHAR
STARTCHAR G
ENCODING 71
SWIDTH 732 0
DWIDTH 10 0
BBX 9 10 1 0
BITMAP
1F00
6100
4100
8000
8000
8380
8100
4100
6100
3F00
ENDCHAR
STARTCHAR H
ENCODING 72
SWIDTH 771 0
DWIDTH 11 0
BBX 10 10 0 0
BITMAP
E1C0
4080
4080
4080
7F80
4080
4080
4080
4080
E1C0
ENDCHAR
STARTCHAR I
ENCODING 73
SWIDTH 325 0
DWIDTH 5 0
BBX 3 10 1 0
BITMAP
E0
40
40
40
40
40
40
40
40
E0
ENDCHAR
STARTCHAR J
ENCODING 74
SWIDTH 422 0
DWIDTH 6 0
BBX 5 13 0 -3
BITMAP
38
10
10
10
10
10
10
10
10
10
10
90
E0
ENDCHAR
STARTCHAR K
ENCODING 75
SWIDTH 708 0
DWIDTH 10 0
BBX 10 10 0 0
BITMAP
E780
4300
4400
5800
7000
5000
4C00
4600
4300
E7C0
ENDCHAR
STARTCHAR L
ENCODING 76
SWIDTH 557 0
DWIDTH 8 0
BBX 7 10 0 0
BITMAP
E0
40
40
40
40
40
40
40
42
FE
ENDCHAR
STARTCHAR M
ENCODING 77
SWIDTH 860 0
DWIDTH 12 0
BBX 11 10 1 0
BITMAP
E0E0
60C0
51C0
5140
5940
4A40
4A40
4440
4440
E0E0
ENDCHAR
STARTCHAR N
ENCODING 78
SWIDTH 751 0
DWIDTH 11 0
BBX 9 10 1 0
BITMAP
C380
6100
7100
5100
4900
4D00
4500
4300
4100
E100
ENDCHAR
STARTCHAR O
ENCODING 79
SWIDTH 777 0
DWIDTH 11 0
BBX 9 10 1 0
BITMAP
3E00
6300
4100
8080
8080
8080
8080
4100
6300
3E00
ENDCHAR
STARTCHAR P
ENCODING 80
SWIDTH 573 0
DWIDTH 8 0
BBX 7 10 1 0
BITMAP
FC
42
42
42
46
7C
40
40
40
E0
ENDCHAR
STARTCHAR Q
ENCODING 81
SWIDTH 778 0
DWIDTH 11 0
BBX 11 13 1 -3
BITMAP
3E00
6300
4100
8080
8080
8080
8080
4180
6300
3F00
0200
01C0
00E0
ENDCHAR
STARTCHAR R
ENCODING 82
SWIDTH 679 0
DWIDTH 9 0
BBX 9 10 0 0
BITMAP
FC00
4200
4200
4200
4400
7800
4C00
4400
4200
E180
ENDCHAR
STARTCHAR S
ENCODING 83
SWIDTH 542 0
DWIDTH 8 0
BBX 6 10 1 0
BITMAP
7C
84
84
C0
60
18
04
84
8C
F8
ENDCHAR
STARTCHAR T
ENCODING 84
SWIDTH 663 0
DWIDTH 9 0
BBX 9 10 0 0
BITMAP
FF80
0800
0800
0800
0800
0800
0800
0800
0800
1C00
ENDCHAR
STARTCHAR U
ENCODING 85
SWIDTH 719 0
DWIDTH 10 0
BBX 9 10 1 0
BITMAP
E380
4100
4100
4100
4100
4100
4100
4100
6300
3E00
ENDCHAR
STARTCHAR V
ENCODING 86
SWIDTH 699 0
DWIDTH 10 0
BBX 10 10 0 0
BITMAP
F1C0
6080
2080
2100
1100
1300
0A00
0A00
0C00
0400
ENDCHAR
STARTCHAR W
ENCODING 87
SWIDTH 925 0
DWIDTH 13 0
BBX 13 10 0 0
BITMAP
F238
4210
2710
2520
2520
2520
18C0
18C0
18C0
1040
ENDCHAR
STARTCHAR X
ENCODING 88
SWIDTH 657 0
DWIDTH 9 0
BBX 9 10 0 0
BITMAP
F380
2100
2200
1400
0C00
1C00
3400
2200
4300
E780
ENDCHAR
STARTCHAR Y
ENCODING 89
SWIDTH 678 0
DWIDTH 9 0
BBX 9 10 0 0
BITMAP
F380
6100
2300
1200
0C00
0800
0800
0800
0800
1C00
ENDCHAR
STARTCHAR Z
ENCODING 90
SWIDTH 633 0
DWIDTH 9 0
BBX 7 10 1 0
BITMAP
FE
84
0C
08
10
10
20
40
42
FE
ENDCHAR
STARTCHAR bracketleft
ENCODING 91
SWIDTH 316 0
DWIDTH 4 0
BBX 3 13 1 -3
BITMAP
E0
80
80
80
80
80
80
80
80
80
80
80
E0
ENDCHAR
STARTCHAR backslash
ENCODING 92
SWIDTH 512 0
DWIDTH 7 0
BBX 7 13 0 -3
BITMAP
80
40
40
20
20
30
10
18
08
08
04
04
02
ENDCHAR
STARTCHAR bracketright
ENCODING 93
SWIDTH 316 0
DWIDTH 4 0
BBX 3 13 0 -3
BITMAP
E0
20
20
20
20
20
20
20
20
20
20
20
E0
ENDCHAR
STARTCHAR asciicircum
ENCODING 94
SWIDTH 608 0
DWIDTH 9 0
BBX 8 8 0 2
BITMAP
08
18
18
24
24
42
42
81
ENDCHAR
STARTCHAR underscore
ENCODING 95
SWIDTH 500 0
DWIDTH 7 0
BBX 6 1 1 -2
BITMAP
FC
ENDCHAR
STARTCHAR grave
ENCODING 96
SWIDTH 602 0
DWIDTH 8 0
BBX 3 1 3 9
BITMAP
E0
ENDCHAR
STARTCHAR a
ENCODING 97
SWIDTH 543 0
DWIDTH 8 0
BBX 7 7 0 0
BITMAP
78
84
04
7C
84
84
7E
ENDCHAR
STARTCHAR b
ENCODING 98
SWIDTH 611 0
DWIDTH 9 0
BBX 8 10 0 0
BITMAP
C0
40
40
5E
63
41
41
41
42
7C
ENDCHAR
STARTCHAR c
ENCODING 99
SWIDTH 509 0
DWIDTH 7 0
BBX 6 7 1 0
BITMAP
3C
44
84
80
80
40
3C
ENDCHAR
STARTCHAR d
ENCODING 100
SWIDTH 642 0
DWIDTH 9 0
BBX 8 10 1 0
BITMAP
06
02
02
3E
42
82
82
82
C6
7B
ENDCHAR
STARTCHAR e
ENCODING 101
SWIDTH 530 0
DWIDTH 7 0
BBX 6 7 1 0
BITMAP
78
C4
84
FC
80
44
38
ENDCHAR
STARTCHAR f
ENCODING 102
SWIDTH 404 0
DWIDTH 6 0
BBX 5 11 1 0
BITMAP
38
48
48
40
F0
40
40
40
40
40
F0
ENDCHAR
STARTCHAR g
ENCODING 103
SWIDTH 571 0
DWIDTH 8 0
BBX 8 10 0 -3
BITMAP
3F
66
42
62
3C
40
7F
81
81
7E
ENDCHAR
STARTCHAR h
ENCODING 104
SWIDTH 633 0
DWIDTH 9 0
BBX 8 10 1 0
BITMAP
C0
40
40
5C
62
42
42
42
42
E7
ENDCHAR
STARTCHAR i
ENCODING 105
SWIDTH 307 0
DWIDTH 4 0
BBX 3 10 1 0
BITMAP
40
00
00
C0
40
40
40
40
40
E0
ENDCHAR
STARTCHAR j
ENCODING 106
SWIDTH 346 0
DWIDTH 5 0
BBX 4 13 0 -3
BITMAP
10
00
00
30
10
10
10
10
10
10
90
90
E0
ENDCHAR
STARTCHAR k
ENCODING 107
SWIDTH 599 0
DWIDTH 8 0
BBX 8 10 0 0
BITMAP
C0
40
40
4E
4C
58
60
58
4C
E7
ENDCHAR
STARTCHAR l
ENCODING 108
SWIDTH 313 0
DWIDTH 4 0
BBX 3 10 1 0
BITMAP
C0
40
40
40
40
40
40
40
40
E0
ENDCHAR
STARTCHAR m
ENCODING 109
SWIDTH 946 0
DWIDTH 13 0
BBX 13 7 0 0
BITMAP
DCE0
6310
4210
4210
4210
4210
E738
ENDCHAR
STARTCHAR n
ENCODING 110
SWIDTH 633 0
DWIDTH 9 0
BBX 8 7 1 0
BITMAP
DC
62
42
42
42
42
E7
ENDCHAR
STARTCHAR o
ENCODING 111
SWIDTH 602 0
DWIDTH 8 0
BBX 7 7 1 0
BITMAP
38
44
82
82
82
44
38
ENDCHAR
STARTCHAR p
ENCODING 112
SWIDTH 642 0
DWIDTH 9 0
BBX 8 10 0 -3
BITMAP
DE
63
41
41
41
42
7C
40
40
E0
ENDCHAR
STARTCHAR q
ENCODING 113
SWIDTH 617 0
DWIDTH 9 0
BBX 8 10 1 -3
BITMAP
3E
42
82
82
82
C6
7A
02
02
07
ENDCHAR
STARTCHAR r
ENCODING 114
SWIDTH 440 0
DWIDTH 6 0
BBX 5 7 0 0
BITMAP
F8
48
48
40
40
40
E0
ENDCHAR
STARTCHAR s
ENCODING 115
SWIDTH 504 0
DWIDTH 7 0
BBX 5 7 1 0
BITMAP
78
88
88
70
88
88
F0
ENDCHAR
STARTCHAR t
ENCODING 116
SWIDTH 392 0
DWIDTH 5 0
BBX 4 9 1 0
BITMAP
40
40
F0
40
40
40
40
40
70
ENDCHAR
STARTCHAR u
ENCODING 117
SWIDTH 633 0
DWIDTH 9 0
BBX 8 7 0 0
BITMAP
C6
42
42
42
42
46
3B
ENDCHAR
STARTCHAR v
ENCODING 118
SWIDTH 545 0
DWIDTH 8 0
BBX 8 7 0 0
BITMAP
E3
43
22
24
14
18
08
ENDCHAR
STARTCHAR w
ENCODING 119
SWIDTH 795 0
DWIDTH 11 0
BBX 11 7 0 0
BITMAP
E460
4460
4E40
2A40
2980
3180
1100
ENDCHAR
STARTCHAR x
ENCODING 120
SWIDTH 557 0
DWIDTH 8 0
BBX 8 7 0 0
BITMAP
E7
62
34
18
2C
46
E7
ENDCHAR
STARTCHAR y
ENCODING 121
SWIDTH 551 0
DWIDTH 8 0
BBX 8 10 0 -3
BITMAP
F3
43
22
26
14
1C
18
08
10
70
ENDCHAR
STARTCHAR z
ENCODING 122
SWIDTH 595 0
DWIDTH 8 0
BBX 6 7 1 0
BITMAP
FC
88
10
20
20
44
FC
ENDCHAR
STARTCHAR braceleft
ENCODING 123
SWIDTH 343 0
DWIDTH 5 0
BBX 4 13 0 -3
BITMAP
30
40
40
40
40
40
80
40
40
40
40
40
30
ENDCHAR
STARTCHAR bar
ENCODING 124
SWIDTH 241 0
DWIDTH 3 0
BBX 1 13 1 -3
BITMAP
80
80
80
80
80
80
80
80
80
80
80
80
80
ENDCHAR
STARTCHAR braceright
ENCODING 125
SWIDTH 343 0
DWIDTH 5 0
BBX 4 13 1 -3
BITMAP
C0
20
20
20
20
20
10
20
20
20
20
20
C0
ENDCHAR
STARTCHAR asciitilde
ENCODING 126
SWIDTH 608 0
DWIDTH 9 0
BBX 8 3 0 2
BITMAP
61
99
86
ENDCHAR
STARTCHAR space
ENCODING 160
SWIDTH 333 0
DWIDTH 4 0
BBX 1 1 0 0
BITMAP
00
ENDCHAR
STARTCHAR exclamdown
ENCODING 161
SWIDTH 265 0
DWIDTH 4 0
BBX 1 10 1 -3
BITMAP
80
00
00
80
80
80
80
80
80
80
ENDCHAR
STARTCHAR cent
ENCODING 162
SWIDTH 608 0
DWIDTH 9 0
BBX 6 10 1 0
BITMAP
10
1C
74
94
90
90
90
50
3C
10
ENDCHAR
STARTCHAR sterling
ENCODING 163
SWIDTH 608 0
DWIDTH 9 0
BBX 5 10 2 0
BITMAP
38
48
48
40
40
E0
40
40
40
F8
ENDCHAR
STARTCHAR currency
ENCODING 164
SWIDTH 608 0
DWIDTH 9 0
BBX 8 8 0 1
BITMAP
81
5A
24
42
42
66
5A
81
ENDCHAR
STARTCHAR yen
ENCODING 165
SWIDTH 608 0
DWIDTH 9 0
BBX 9 10 0 0
BITMAP
F380
6300
1600
0C00
3E00
0800
3E00
0800
0800
1C00
ENDCHAR
STARTCHAR brokenbar
ENCODING 166
SWIDTH 241 0
DWIDTH 3 0
BBX 1 13 1 -3
BITMAP
80
80
80
80
80
80
00
80
80
80
80
80
80
ENDCHAR
STARTCHAR section
ENCODING 167
SWIDTH 608 0
DWIDTH 9 0
BBX 6 13 1 -3
BITMAP
7C
C4
84
80
60
98
84
44
38
04
84
C4
F8
ENDCHAR
STARTCHAR dieresis
ENCODING 168
SWIDTH 602 0
DWIDTH 8 0
BBX 4 1 2 9
BITMAP
90
ENDCHAR
STARTCHAR copyright
ENCODING 169
SWIDTH 855 0
DWIDTH 12 0
BBX 10 10 1 0
BITMAP
1E00
6180
4E80
9240
9040
9040
9840
4E80
6180
1E00
ENDCHAR
STARTCHAR ordfeminine
ENCODING 170
SWIDTH 428 0
DWIDTH 6 0
BBX 6 5 0 5
BITMAP
F8
88
78
88
FC
ENDCHAR
STARTCHAR guillemotleft
ENCODING 171
SWIDTH 530 0
DWIDTH 7 0
BBX 6 7 1 0
BITMAP
24
28
58
D0
58
28
24
ENDCHAR
STARTCHAR logicalnot
ENCODING 172
SWIDTH 608 0
DWIDTH 9 0
BBX 8 4 0 2
BITMAP
FF
01
01
01
ENDCHAR
STARTCHAR hyphen
ENCODING 173
SWIDTH 325 0
DWIDTH 5 0
BBX 3 1 1 4
BITMAP
E0
ENDCHAR
STARTCHAR registered
ENCODING 174
SWIDTH 608 0
DWIDTH 9 0
BBX 7 6 1 4
BITMAP
78
FC
AA
B2
6E
38
ENDCHAR
STARTCHAR macron
ENCODING 175
SWIDTH 602 0
DWIDTH 8 0
BBX 4 1 2 9
BITMAP
F0
ENDCHAR
STARTCHAR degree
ENCODING 176
SWIDTH 259 0
DWIDTH 4 0
BBX 3 2 2 8
BITMAP
E0
60
ENDCHAR
STARTCHAR plusminus
ENCODING 177
SWIDTH 608 0
DWIDTH 9 0
BBX 9 8 0 0
BITMAP
0800
0800
FF80
0800
0800
0800
0000
FF80
ENDCHAR
STARTCHAR twosuperior
ENCODING 178
SWIDTH 365 0
DWIDTH 5 0
BBX 4 6 -8 4
BITMAP
E0
90
10
60
C0
F0
ENDCHAR
STARTCHAR threesuperior
ENCODING 179
SWIDTH 365 0
DWIDTH 5 0
BBX 4 6 -8 4
BITMAP
F0
90
60
30
90
E0
ENDCHAR
STARTCHAR acute
ENCODING 180
SWIDTH 602 0
DWIDTH 8 0
BBX 3 1 3 9
BITMAP
E0
ENDCHAR
STARTCHAR mu
ENCODING 181
SWIDTH 626 0
DWIDTH 9 0
BBX 8 10 0 -3
BITMAP
C6
42
42
42
42
46
7B
40
40
40
ENDCHAR
STARTCHAR paragraph
ENCODING 182
SWIDTH 608 0
DWIDTH 9 0
BBX 6 13 1 -3
BITMAP
7C
F4
F4
F4
74
34
14
14
14
14
14
14
14
ENDCHAR
STARTCHAR periodcentered
ENCODING 183
SWIDTH 608 0
DWIDTH 9 0
BBX 1 1 4 4
BITMAP
80
ENDCHAR
STARTCHAR cedilla
ENCODING 184
SWIDTH 602 0
DWIDTH 8 0
BBX 2 3 3 -3
BITMAP
C0
40
C0
ENDCHAR
STARTCHAR onesuperior
ENCODING 185
SWIDTH 365 0
DWIDTH 5 0
BBX 3 6 -8 4
BITMAP
C0
40
40
40
40
E0
ENDCHAR
STARTCHAR ordmasculine
ENCODING 186
SWIDTH 428 0
DWIDTH 6 0
BBX 5 5 0 5
BITMAP
70
88
88
88
70
ENDCHAR
STARTCHAR guillemotright
ENCODING 187
SWIDTH 530 0
DWIDTH 7 0
BBX 6 7 1 0
BITMAP
90
50
68
2C
68
50
90
ENDCHAR
STARTCHAR onequarter
ENCODING 188
SWIDTH 766 0
DWIDTH 11 0
BBX 10 10 3 0
BITMAP
C180
4100
4200
4400
4D80
FB80
1680
27C0
4080
C1C0
ENDCHAR
STARTCHAR onehalf
ENCODING 189
SWIDTH 766 0
DWIDTH 11 0
BBX 9 10 3 0
BITMAP
C180
4100
4200
4400
4F00
FC80
1080
2300
4600
C780
ENDCHAR
STARTCHAR threequarters
ENCODING 190
SWIDTH 766 0
DWIDTH 11 0
BBX 10 10 3 0
BITMAP
F180
9100
6200
3400
9D80
FB80
1680
27C0
4080
C1C0
ENDCHAR
STARTCHAR questiondown
ENCODING 191
SWIDTH 480 0
DWIDTH 7 0
BBX 5 10 1 -3
BITMAP
20
00
20
20
20
40
80
88
88
78
ENDCHAR
STARTCHAR Agrave
ENCODING 192
SWIDTH 744 0
DWIDTH 10 0
BBX 10 12 0 0
BITMAP
1C00
0000
0800
0C00
1C00
1400
1200
2200
3F00
4100
4180
E3C0
ENDCHAR
STARTCHAR Aacute
ENCODING 193
SWIDTH 744 0
DWIDTH 10 0
BBX 10 12 0 0
BITMAP
0E00
0000
0800
0C00
1C00
1400
1200
2200
3F00
4100
4180
E3C0
ENDCHAR
STARTCHAR Acircumflex
ENCODING 194
SWIDTH 744 0
DWIDTH 10 0
BBX 10 12 0 0
BITMAP
3E00
0000
0800
0C00
1C00
1400
1200
2200
3F00
4100
4180
E3C0
ENDCHAR
STARTCHAR Atilde
ENCODING 195
SWIDTH 744 0
DWIDTH 10 0
BBX 10 12 0 0
BITMAP
1F00
0000
0800
0C00
1C00
1400
1200
2200
3F00
4100
4180
E3C0
ENDCHAR
STARTCHAR Adieresis
ENCODING 196
SWIDTH 744 0
DWIDTH 10 0
BBX 10 12 0 0
BITMAP
1200
0000
0800
0C00
1C00
1400
1200
2200
3F00
4100
4180
E3C0
ENDCHAR
STARTCHAR Aring
ENCODING 197
SWIDTH 744 0
DWIDTH 10 0
BBX 10 13 0 0
BITMAP
0C00
1200
0C00
0800
0C00
1C00
1400
1200
2200
3F00
4100
4180
E3C0
ENDCHAR
STARTCHAR AE
ENCODING 198
SWIDTH 919 0
DWIDTH 13 0
BBX 13 10 0 0
BITMAP
03F8
0308
0700
0D10
09F0
1110
3F00
2100
4108
E3F8
ENDCHAR
STARTCHAR Ccedilla
ENCODING 199
SWIDTH 695 0
DWIDTH 10 0
BBX 8 13 1 -3
BITMAP
1F
61
41
80
80
80
80
40
61
3E
08
08
18
ENDCHAR
STARTCHAR Egrave
ENCODING 200
SWIDTH 566 0
DWIDTH 8 0
BBX 6 12 1 0
BITMAP
70
00
FC
44
40
48
78
48
40
40
44
FC
ENDCHAR
STARTCHAR Eacute
ENCODING 201
SWIDTH 566 0
DWIDTH 8 0
BBX 6 12 1 0
BITMAP
38
00
FC
44
40
48
78
48
40
40
44
FC
ENDCHAR
STARTCHAR Ecircumflex
ENCODING 202
SWIDTH 566 0
DWIDTH 8 0
BBX 6 12 1 0
BITMAP
7C
00
FC
44
40
48
78
48
40
40
44
FC
ENDCHAR
STARTCHAR Edieresis
ENCODING 203
SWIDTH 566 0
DWIDTH 8 0
BBX 6 12 1 0
BITMAP
48
00
FC
44
40
48
78
48
40
40
44
FC
ENDCHAR
STARTCHAR Igrave
ENCODING 204
SWIDTH 325 0
DWIDTH 5 0
BBX 3 12 1 0
BITMAP
E0
00
E0
40
40
40
40
40
40
40
40
E0
ENDCHAR
STARTCHAR Iacute
ENCODING 205
SWIDTH 325 0
DWIDTH 5 0
BBX 3 12 1 0
BITMAP
E0
00
E0
40
40
40
40
40
40
40
40
E0
ENDCHAR
STARTCHAR Icircumflex
ENCODING 206
SWIDTH 325 0
DWIDTH 5 0
BBX 5 12 2 0
BITMAP
F8
00
70
20
20
20
20
20
20
20
20
70
ENDCHAR
STARTCHAR Idieresis
ENCODING 207
SWIDTH 325 0
DWIDTH 5 0
BBX 4 12 2 0
BITMAP
90
00
70
20
20
20
20
20
20
20
20
70
ENDCHAR
STARTCHAR Eth
ENCODING 208
SWIDTH 768 0
DWIDTH 11 0
BBX 9 10 1 0
BITMAP
FE00
4300
4180
4080
F080
4080
4080
4080
4100
FE00
ENDCHAR
STARTCHAR Ntilde
ENCODING 209
SWIDTH 751 0
DWIDTH 11 0
BBX 9 12 1 0
BITMAP
3E00
0000
C380
6100
7100
5100
4900
4D00
4500
4300
4100
E100
ENDCHAR
STARTCHAR Ograve
ENCODING 210
SWIDTH 777 0
DWIDTH 11 0
BBX 9 12 1 0
BITMAP
1C00
0000
3E00
6300
4100
8080
8080
8080
8080
4100
6300
3E00
ENDCHAR
STARTCHAR Oacute
ENCODING 211
SWIDTH 777 0
DWIDTH 11 0
BBX 9 12 1 0
BITMAP
1C00
0000
3E00
6300
4100
8080
8080
8080
8080
4100
6300
3E00
ENDCHAR
STARTCHAR Ocircumflex
ENCODING 212
SWIDTH 777 0
DWIDTH 11 0
BBX 9 12 1 0
BITMAP
3E00
0000
3E00
6300
4100
8080
8080
8080
8080
4100
6300
3E00
ENDCHAR
STARTCHAR Otilde
ENCODING 213
SWIDTH 777 0
DWIDTH 11 0
BBX 9 12 1 0
BITMAP
3E00
0000
3E00
6300
4100
8080
8080
8080
8080
4100
6300
3E00
ENDCHAR
STARTCHAR Odieresis
ENCODING 214
SWIDTH 777 0
DWIDTH 11 0
BBX 9 12 1 0
BITMAP
2400
0000
3E00
6300
4100
8080
8080
8080
8080
4100
6300
3E00
ENDCHAR
STARTCHAR multiply
ENCODING 215
SWIDTH 608 0
DWIDTH 9 0
BBX 8 8 0 0
BITMAP
81
42
24
18
18
24
42
81
ENDCHAR
STARTCHAR Oslash
ENCODING 216
SWIDTH 777 0
DWIDTH 11 0
BBX 9 10 1 0
BITMAP
3E80
6180
4180
8680
8C80
9880
B080
E100
4300
BE00
ENDCHAR
STARTCHAR Ugrave
ENCODING 217
SWIDTH 719 0
DWIDTH 10 0
BBX 9 12 1 0
BITMAP
1C00
0000
E380
4100
4100
4100
4100
4100
4100
4100
6300
3E00
ENDCHAR
STARTCHAR Uacute
ENCODING 218
SWIDTH 719 0
DWIDTH 10 0
BBX 9 12 1 0
BITMAP
1C00
0000
E380
4100
4100
4100
4100
4100
4100
4100
6300
3E00
ENDCHAR
STARTCHAR Ucircumflex
ENCODING 219
SWIDTH 719 0
DWIDTH 10 0
BBX 9 12 1 0
BITMAP
3E00
0000
E380
4100
4100
4100
4100
4100
4100
4100
6300
3E00
ENDCHAR
STARTCHAR Udieresis
ENCODING 220
SWIDTH 719 0
DWIDTH 10 0
BBX 9 12 1 0
BITMAP
1200
0000
E380
4100
4100
4100
4100
4100
4100
4100
6300
3E00
ENDCHAR
STARTCHAR Yacute
ENCODING 221
SWIDTH 678 0
DWIDTH 9 0
BBX 9 12 0 0
BITMAP
1C00
0000
F380
6100
2300
1200
0C00
0800
0800
0800
0800
1C00
ENDCHAR
STARTCHAR Thorn
ENCODING 222
SWIDTH 573 0
DWIDTH 8 0
BBX 7 10 1 0
BITMAP
E0
40
7C
42
42
42
44
78
40
E0
ENDCHAR
STARTCHAR germandbls
ENCODING 223
SWIDTH 614 0
DWIDTH 9 0
BBX 6 11 1 0
BITMAP
30
48
48
50
50
50
48
4C
44
54
F8
ENDCHAR
STARTCHAR agrave
ENCODING 224
SWIDTH 543 0
DWIDTH 8 0
BBX 7 9 0 0
BITMAP
38
00
78
84
04
7C
84
84
7E
ENDCHAR
STARTCHAR aacute
ENCODING 225
SWIDTH 543 0
DWIDTH 8 0
BBX 7 9 0 0
BITMAP
38
00
78
84
04
7C
84
84
7E
ENDCHAR
STARTCHAR acircumflex
ENCODING 226
SWIDTH 543 0
DWIDTH 8 0
BBX 7 9 0 0
BITMAP
7C
00
78
84
04
7C
84
84
7E
ENDCHAR
STARTCHAR atilde
ENCODING 227
SWIDTH 543 0
DWIDTH 8 0
BBX 7 9 0 0
BITMAP
7C
00
78
84
04
7C
84
84
7E
ENDCHAR
STARTCHAR adieresis
ENCODING 228
SWIDTH 543 0
DWIDTH 8 0
BBX 7 9 0 0
BITMAP
48
00
78
84
04
7C
84
84
7E
ENDCHAR
STARTCHAR aring
ENCODING 229
SWIDTH 543 0
DWIDTH 8 0
BBX 7 10 0 0
BITMAP
30
48
00
78
84
04
7C
84
84
7E
ENDCHAR
STARTCHAR ae
ENCODING 230
SWIDTH 819 0
DWIDTH 11 0
BBX 10 7 1 0
BITMAP
7B80
8C40
0840
7FC0
8800
8C40
7380
ENDCHAR
STARTCHAR ccedilla
ENCODING 231
SWIDTH 509 0
DWIDTH 7 0
BBX 6 10 1 -3
BITMAP
3C
44
84
80
80
40
3C
10
10
30
ENDCHAR
STARTCHAR egrave
ENCODING 232
SWIDTH 530 0
DWIDTH 7 0
BBX 6 9 1 0
BITMAP
70
00
78
C4
84
FC
80
44
38
ENDCHAR
STARTCHAR eacute
ENCODING 233
SWIDTH 530 0
DWIDTH 7 0
BBX 6 9 1 0
BITMAP
38
00
78
C4
84
FC
80
44
38
ENDCHAR
STARTCHAR ecircumflex
ENCODING 234
SWIDTH 530 0
DWIDTH 7 0
BBX 6 9 1 0
BITMAP
7C
00
78
C4
84
FC
80
44
38
ENDCHAR
STARTCHAR edieresis
ENCODING 235
SWIDTH 530 0
DWIDTH 7 0
BBX 6 9 1 0
BITMAP
48
00
78
C4
84
FC
80
44
38
ENDCHAR
STARTCHAR igrave
ENCODING 236
SWIDTH 307 0
DWIDTH 4 0
BBX 3 9 1 0
BITMAP
E0
00
C0
40
40
40
40
40
E0
ENDCHAR
STARTCHAR iacute
ENCODING 237
SWIDTH 307 0
DWIDTH 4 0
BBX 3 9 1 0
BITMAP
E0
00
C0
40
40
40
40
40
E0
ENDCHAR
STARTCHAR icircumflex
ENCODING 238
SWIDTH 307 0
DWIDTH 4 0
BBX 5 9 2 0
BITMAP
F8
00
60
20
20
20
20
20
70
ENDCHAR
STARTCHAR idieresis
ENCODING 239
SWIDTH 307 0
DWIDTH 4 0
BBX 4 9 2 0
BITMAP
90
00
60
20
20
20
20
20
70
ENDCHAR
STARTCHAR eth
ENCODING 240
SWIDTH 596 0
DWIDTH 8 0
BBX 7 10 1 0
BITMAP
FC
38
4C
3C
46
82
82
82
44
38
ENDCHAR
STARTCHAR ntilde
ENCODING 241
SWIDTH 633 0
DWIDTH 9 0
BBX 8 9 1 0
BITMAP
7C
00
DC
62
42
42
42
42
E7
ENDCHAR
STARTCHAR ograve
ENCODING 242
SWIDTH 602 0
DWIDTH 8 0
BBX 7 9 1 0
BITMAP
38
00
38
44
82
82
82
44
38
ENDCHAR
STARTCHAR oacute
ENCODING 243
SWIDTH 602 0
DWIDTH 8 0
BBX 7 9 1 0
BITMAP
38
00
38
44
82
82
82
44
38
ENDCHAR
STARTCHAR ocircumflex
ENCODING 244
SWIDTH 602 0
DWIDTH 8 0
BBX 7 9 1 0
BITMAP
7C
00
38
44
82
82
82
44
38
ENDCHAR
STARTCHAR otilde
ENCODING 245
SWIDTH 602 0
DWIDTH 8 0
BBX 7 9 1 0
BITMAP
7C
00
38
44
82
82
82
44
38
ENDCHAR
STARTCHAR odieresis
ENCODING 246
SWIDTH 602 0
DWIDTH 8 0
BBX 7 9 1 0
BITMAP
48
00
38
44
82
82
82
44
38
ENDCHAR
STARTCHAR divide
ENCODING 247
SWIDTH 608 0
DWIDTH 9 0
BBX 7 7 1 0
BITMAP
10
00
00
FE
00
00
10
ENDCHAR
STARTCHAR oslash
ENCODING 248
SWIDTH 602 0
DWIDTH 8 0
BBX 7 7 1 0
BITMAP
3A
46
8E
92
E2
C4
B8
ENDCHAR
STARTCHAR ugrave
ENCODING 249
SWIDTH 633 0
DWIDTH 9 0
BBX 8 9 0 0
BITMAP
38
00
C6
42
42
42
42
46
3B
ENDCHAR
STARTCHAR uacute
ENCODING 250
SWIDTH 633 0
DWIDTH 9 0
BBX 8 9 0 0
BITMAP
1C
00
C6
42
42
42
42
46
3B
ENDCHAR
STARTCHAR ucircumflex
ENCODING 251
SWIDTH 633 0
DWIDTH 9 0
BBX 8 9 0 0
BITMAP
3E
00
C6
42
42
42
42
46
3B
ENDCHAR
STARTCHAR udieresis
ENCODING 252
SWIDTH 633 0
DWIDTH 9 0
BBX 8 9 0 0
BITMAP
24
00
C6
42
42
42
42
46
3B
ENDCHAR
STARTCHAR yacute
ENCODING 253
SWIDTH 551 0
DWIDTH 8 0
BBX 8 12 0 -3
BITMAP
1C
00
F3
43
22
26
14
1C
18
08
10
70
ENDCHAR
STARTCHAR thorn
ENCODING 254
SWIDTH 642 0
DWIDTH 9 0
BBX 8 13 0 -3
BITMAP
C0
40
40
5E
63
41
41
41
42
7C
40
40
E0
ENDCHAR
STARTCHAR ydieresis
ENCODING 255
SWIDTH 551 0
DWIDTH 8 0
BBX 8 12 0 -3
BITMAP
24
00
F3
43
22
26
14
1C
18
08
10
70
ENDCHAR
STARTCHAR Amacron
ENCODING 256
SWIDTH 744 0
DWIDTH 10 0
BBX 10 12 0 0
BITMAP
1E00
0000
0800
0C00
1C00
1400
1200
2200
3F00
4100
4180
E3C0
ENDCHAR
STARTCHAR amacron
ENCODING 257
SWIDTH 543 0
DWIDTH 8 0
BBX 7 9 0 0
BITMAP
78
00
78
84
04
7C
84
84
7E
ENDCHAR
STARTCHAR Abreve
ENCODING 258
SWIDTH 744 0
DWIDTH 10 0
BBX 10 12 0 0
BITMAP
3E00
0000
0800
0C00
1C00
1400
1200
2200
3F00
4100
4180
E3C0
ENDCHAR
STARTCHAR abreve
ENCODING 259
SWIDTH 543 0
DWIDTH 8 0
BBX 7 9 0 0
BITMAP
7C
00
78
84
04
7C
84
84
7E
ENDCHAR
STARTCHAR Aogonek
ENCODING 260
SWIDTH 744 0
DWIDTH 10 0
BBX 10 13 0 -3
BITMAP
0800
0C00
1C00
1400
1200
2200
3F00
4100
4180
E3C0
0000
0000
0C00
ENDCHAR
STARTCHAR aogonek
ENCODING 261
SWIDTH 543 0
DWIDTH 8 0
BBX 7 10 0 -3
BITMAP
78
84
04
7C
84
84
7E
00
00
18
ENDCHAR
STARTCHAR Cacute
ENCODING 262
SWIDTH 695 0
DWIDTH 10 0
BBX 8 12 1 0
BITMAP
1C
00
1F
61
41
80
80
80
80
40
61
3E
ENDCHAR
STARTCHAR cacute
ENCODING 263
SWIDTH 509 0
DWIDTH 7 0
BBX 6 9 1 0
BITMAP
38
00
3C
44
84
80
80
40
3C
ENDCHAR
STARTCHAR Ccircumflex
ENCODING 264
SWIDTH 695 0
DWIDTH 10 0
BBX 8 12 1 0
BITMAP
3E
00
1F
61
41
80
80
80
80
40
61
3E
ENDCHAR
STARTCHAR ccircumflex
ENCODING 265
SWIDTH 509 0
DWIDTH 7 0
BBX 6 9 1 0
BITMAP
7C
00
3C
44
84
80
80
40
3C
ENDCHAR
STARTCHAR Cdotaccent
ENCODING 266
SWIDTH 695 0
DWIDTH 10 0
BBX 8 12 1 0
BITMAP
08
00
1F
61
41
80
80
80
80
40
61
3E
ENDCHAR
STARTCHAR cdotaccent
ENCODING 267
SWIDTH 509 0
DWIDTH 7 0
BBX 6 9 1 0
BITMAP
10
00
3C
44
84
80
80
40
3C
ENDCHAR
STARTCHAR Ccaron
ENCODING 268
SWIDTH 695 0
DWIDTH 10 0
BBX 8 12 1 0
BITMAP
3E
00
1F
61
41
80
80
80
80
40
61
3E
ENDCHAR
STARTCHAR ccaron
ENCODING 269
SWIDTH 509 0
DWIDTH 7 0
BBX 6 9 1 0
BITMAP
7C
00
3C
44
84
80
80
40
3C
ENDCHAR
STARTCHAR Dcaron
ENCODING 270
SWIDTH 768 0
DWIDTH 11 0
BBX 9 12 1 0
BITMAP
3E00
0000
FE00
4300
4180
4080
4080
4080
4080
4080
4100
FE00
ENDCHAR
STARTCHAR dcaron
ENCODING 271
SWIDTH 875 0
DWIDTH 13 0
BBX 11 10 1 0
BITMAP
0660
0220
0260
3E00
4200
8200
8200
8200
C600
7B00
ENDCHAR
STARTCHAR Dcroat
ENCODING 272
SWIDTH 768 0
DWIDTH 11 0
BBX 9 10 1 0
BITMAP
FE00
4300
4180
4080
F080
4080
4080
4080
4100
FE00
ENDCHAR
STARTCHAR dcroat
ENCODING 273
SWIDTH 642 0
DWIDTH 9 0
BBX 8 10 1 0
BITMAP
06
0E
02
3E
42
82
82
82
C6
7B
ENDCHAR
STARTCHAR Emacron
ENCODING 274
SWIDTH 566 0
DWIDTH 8 0
BBX 6 12 1 0
BITMAP
78
00
FC
44
40
48
78
48
40
40
44
FC
ENDCHAR
STARTCHAR emacron
ENCODING 275
SWIDTH 530 0
DWIDTH 7 0
BBX 6 9 1 0
BITMAP
78
00
78
C4
84
FC
80
44
38
ENDCHAR
STARTCHAR Ebreve
ENCODING 276
SWIDTH 566 0
DWIDTH 8 0
BBX 6 12 1 0
BITMAP
F8
00
FC
44
40
48
78
48
40
40
44
FC
ENDCHAR
STARTCHAR ebreve
ENCODING 277
SWIDTH 530 0
DWIDTH 7 0
BBX 6 9 1 0
BITMAP
F8
00
78
C4
84
FC
80
44
38
ENDCHAR
STARTCHAR Edotaccent
ENCODING 278
SWIDTH 566 0
DWIDTH 8 0
BBX 6 12 1 0
BITMAP
20
00
FC
44
40
48
78
48
40
40
44
FC
ENDCHAR
STARTCHAR edotaccent
ENCODING 279
SWIDTH 530 0
DWIDTH 7 0
BBX 6 9 1 0
BITMAP
20
00
78
C4
84
FC
80
44
38
ENDCHAR
STARTCHAR Eogonek
ENCODING 280
SWIDTH 566 0
DWIDTH 8 0
BBX 6 13 1 -3
BITMAP
FC
44
40
48
78
48
40
40
44
FC
00
00
30
ENDCHAR
STARTCHAR eogonek
ENCODING 281
SWIDTH 530 0
DWIDTH 7 0
BBX 6 10 1 -3
BITMAP
78
C4
84
FC
80
44
38
00
00
30
ENDCHAR
STARTCHAR Ecaron
ENCODING 282
SWIDTH 566 0
DWIDTH 8 0
BBX 6 12 1 0
BITMAP
F8
00
FC
44
40
48
78
48
40
40
44
FC
ENDCHAR
STARTCHAR ecaron
ENCODING 283
SWIDTH 530 0
DWIDTH 7 0
BBX 6 9 1 0
BITMAP
F8
00
78
C4
84
FC
80
44
38
ENDCHAR
STARTCHAR Gcircumflex
ENCODING 284
SWIDTH 732 0
DWIDTH 10 0
BBX 9 12 1 0
BITMAP
3E00
0000
1F00
6100
4100
8000
8000
8380
8100
4100
6100
3F00
ENDCHAR
STARTCHAR gcircumflex
ENCODING 285
SWIDTH 571 0
DWIDTH 8 0
BBX 8 12 0 -3
BITMAP
3E
00
3F
66
42
62
3C
40
7F
81
81
7E
ENDCHAR
STARTCHAR Gbreve
ENCODING 286
SWIDTH 732 0
DWIDTH 10 0
BBX 9 12 1 0
BITMAP
3E00
0000
1F00
6100
4100
8000
8000
8380
8100
4100
6100
3F00
ENDCHAR
STARTCHAR gbreve
ENCODING 287
SWIDTH 571 0
DWIDTH 8 0
BBX 8 12 0 -3
BITMAP
3E
00
3F
66
42
62
3C
40
7F
81
81
7E
ENDCHAR
STARTCHAR Gdotaccent
ENCODING 288
SWIDTH 732 0
DWIDTH 10 0
BBX 9 12 1 0
BITMAP
0800
0000
1F00
6100
4100
8000
8000
8380
8100
4100
6100
3F00
ENDCHAR
STARTCHAR gdotaccent
ENCODING 289
SWIDTH 571 0
DWIDTH 8 0
BBX 8 12 0 -3
BITMAP
08
00
3F
66
42
62
3C
40
7F
81
81
7E
ENDCHAR
STARTCHAR Gcommaaccent
ENCODING 290
SWIDTH 732 0
DWIDTH 10 0
BBX 9 16 1 -6
BITMAP
1F00
6100
4100
8000
8000
8380
8100
4100
6100
3F00
0000
0C00
0C00
0400
0400
0800
ENDCHAR
STARTCHAR gcommaaccent
ENCODING 291
SWIDTH 571 0
DWIDTH 8 0
BBX 8 14 0 -3
BITMAP
18
10
18
00
3F
66
42
62
3C
40
7F
81
81
7E
ENDCHAR
STARTCHAR Hcircumflex
ENCODING 292
SWIDTH 771 0
DWIDTH 11 0
BBX 10 12 0 0
BITMAP
1F00
0000
E1C0
4080
4080
4080
7F80
4080
4080
4080
4080
E1C0
ENDCHAR
STARTCHAR hcircumflex
ENCODING 293
SWIDTH 633 0
DWIDTH 9 0
BBX 8 12 1 0
BITMAP
F8
00
C0
40
40
5C
62
42
42
42
42
E7
ENDCHAR
STARTCHAR Hbar
ENCODING 294
SWIDTH 771 0
DWIDTH 11 0
BBX 10 10 0 0
BITMAP
E1C0
4080
FFC0
4080
7F80
4080
4080
4080
4080
E1C0
ENDCHAR
STARTCHAR hbar
ENCODING 295
SWIDTH 633 0
DWIDTH 9 0
BBX 8 10 1 0
BITMAP
C0
70
40
5C
62
42
42
42
42
E7
ENDCHAR
STARTCHAR Itilde
ENCODING 296
SWIDTH 325 0
DWIDTH 5 0
BBX 5 12 0 0
BITMAP
F8
00
70
20
20
20
20
20
20
20
20
70
ENDCHAR
STARTCHAR itilde
ENCODING 297
SWIDTH 307 0
DWIDTH 4 0
BBX 5 9 0 0
BITMAP
F8
00
60
20
20
20
20
20
70
ENDCHAR
STARTCHAR Imacron
ENCODING 298
SWIDTH 325 0
DWIDTH 5 0
BBX 4 12 1 0
BITMAP
F0
00
E0
40
40
40
40
40
40
40
40
E0
ENDCHAR
STARTCHAR imacron
ENCODING 299
SWIDTH 307 0
DWIDTH 4 0
BBX 4 9 0 0
BITMAP
F0
00
60
20
20
20
20
20
70
ENDCHAR
STARTCHAR Ibreve
ENCODING 300
SWIDTH 325 0
DWIDTH 5 0
BBX 5 12 0 0
BITMAP
F8
00
70
20
20
20
20
20
20
20
20
70
ENDCHAR
STARTCHAR ibreve
ENCODING 301
SWIDTH 307 0
DWIDTH 4 0
BBX 5 9 0 0
BITMAP
F8
00
60
20
20
20
20
20
70
ENDCHAR
STARTCHAR Iogonek
ENCODING 302
SWIDTH 325 0
DWIDTH 5 0
BBX 3 13 1 -3
BITMAP
E0
40
40
40
40
40
40
40
40
E0
00
00
60
ENDCHAR
STARTCHAR iogonek
ENCODING 303
SWIDTH 307 0
DWIDTH 4 0
BBX 3 13 1 -3
BITMAP
40
00
00
C0
40
40
40
40
40
E0
00
00
60
ENDCHAR
STARTCHAR Idotaccent
ENCODING 304
SWIDTH 325 0
DWIDTH 5 0
BBX 3 12 1 0
BITMAP
40
00
E0
40
40
40
40
40
40
40
40
E0
ENDCHAR
STARTCHAR dotlessi
ENCODING 305
SWIDTH 307 0
DWIDTH 4 0
BBX 3 7 1 0
BITMAP
C0
40
40
40
40
40
E0
ENDCHAR
STARTCHAR IJ
ENCODING 306
SWIDTH 731 0
DWIDTH 11 0
BBX 9 13 1 -3
BITMAP
E380
4100
4100
4100
4100
4100
4100
4100
4100
E100
0100
0900
0E00
ENDCHAR
STARTCHAR ij
ENCODING 307
SWIDTH 638 0
DWIDTH 9 0
BBX 7 13 1 -3
BITMAP
42
00
00
C6
42
42
42
42
42
E2
12
12
1C
ENDCHAR
STARTCHAR Jcircumflex
ENCODING 308
SWIDTH 422 0
DWIDTH 6 0
BBX 6 15 0 -3
BITMAP
7C
00
38
10
10
10
10
10
10
10
10
10
10
90
E0
ENDCHAR
STARTCHAR jcircumflex
ENCODING 309
SWIDTH 346 0
DWIDTH 5 0
BBX 5 12 0 -3
BITMAP
F8
00
30
10
10
10
10
10
10
90
90
E0
ENDCHAR
STARTCHAR Kcommaaccent
ENCODING 310
SWIDTH 708 0
DWIDTH 10 0
BBX 10 16 0 -6
BITMAP
E780
4300
4400
5800
7000
5000
4C00
4600
4300
E7C0
0000
0C00
0C00
0400
0400
0800
ENDCHAR
STARTCHAR kcommaaccent
ENCODING 311
SWIDTH 599 0
DWIDTH 8 0
BBX 8 16 0 -6
BITMAP
C0
40
40
4E
4C
58
60
58
4C
E7
00
18
18
08
08
10
ENDCHAR
STARTCHAR kgreenlandic
ENCODING 312
SWIDTH 599 0
DWIDTH 8 0
BBX 8 7 0 0
BITMAP
4E
4C
58
60
58
4C
E7
ENDCHAR
STARTCHAR Lacute
ENCODING 313
SWIDTH 557 0
DWIDTH 8 0
BBX 7 12 0 0
BITMAP
70
00
E0
40
40
40
40
40
40
40
42
FE
ENDCHAR
STARTCHAR lacute
ENCODING 314
SWIDTH 313 0
DWIDTH 4 0
BBX 3 12 1 0
BITMAP
E0
00
C0
40
40
40
40
40
40
40
40
E0
ENDCHAR
STARTCHAR Lcommaaccent
ENCODING 315
SWIDTH 557 0
DWIDTH 8 0
BBX 7 16 0 -6
BITMAP
E0
40
40
40
40
40
40
40
42
FE
00
30
30
10
10
20
ENDCHAR
STARTCHAR lcommaaccent
ENCODING 316
SWIDTH 313 0
DWIDTH 4 0
BBX 3 16 1 -6
BITMAP
C0
40
40
40
40
40
40
40
40
E0
00
60
60
20
20
40
ENDCHAR
STARTCHAR Lcaron
ENCODING 317
SWIDTH 794 0
DWIDTH 12 0
BBX 11 10 0 0
BITMAP
E060
4020
4060
4000
4000
4000
4000
4000
4200
FE00
ENDCHAR
STARTCHAR lcaron
ENCODING 318
SWIDTH 562 0
DWIDTH 8 0
BBX 6 10 1 0
BITMAP
CC
44
4C
40
40
40
40
40
40
E0
ENDCHAR
STARTCHAR Ldot
ENCODING 319
SWIDTH 1137 0
DWIDTH 17 0
BBX 13 10 0 0
BITMAP
E000
4000
4000
4000
4000
4008
4000
4000
4200
FE00
ENDCHAR
STARTCHAR ldot
ENCODING 320
SWIDTH 905 0
DWIDTH 13 0
BBX 8 10 1 0
BITMAP
C0
40
40
40
40
41
40
40
40
E0
ENDCHAR
STARTCHAR Lslash
ENCODING 321
SWIDTH 557 0
DWIDTH 8 0
BBX 7 10 0 0
BITMAP
E0
40
40
50
70
C0
C0
40
42
FE
ENDCHAR
STARTCHAR lslash
ENCODING 322
SWIDTH 313 0
DWIDTH 4 0
BBX 5 10 0 0
BITMAP
E0
20
20
28
38
E0
20
20
20
F8
ENDCHAR
STARTCHAR Nacute
ENCODING 323
SWIDTH 751 0
DWIDTH 11 0
BBX 9 12 1 0
BITMAP
1C00
0000
C380
6100
7100
5100
4900
4D00
4500
4300
4100
E100
ENDCHAR
STARTCHAR nacute
ENCODING 324
SWIDTH 633 0
DWIDTH 9 0
BBX 8 9 1 0
BITMAP
38
00
DC
62
42
42
42
42
E7
ENDCHAR
STARTCHAR Ncommaaccent
ENCODING 325
SWIDTH 751 0
DWIDTH 11 0
BBX 9 16 1 -6
BITMAP
C380
6100
7100
5100
4900
4D00
4500
4300
4100
E100
0000
1800
1800
0800
0800
1000
ENDCHAR
STARTCHAR ncommaaccent
ENCODING 326
SWIDTH 633 0
DWIDTH 9 0
BBX 8 13 1 -6
BITMAP
DC
62
42
42
42
42
E7
00
18
18
08
08
10
ENDCHAR
STARTCHAR Ncaron
ENCODING 327
SWIDTH 751 0
DWIDTH 11 0
BBX 9 12 1 0
BITMAP
3E00
0000
C380
6100
7100
5100
4900
4D00
4500
4300
4100
E100
ENDCHAR
STARTCHAR ncaron
ENCODING 328
SWIDTH 633 0
DWIDTH 9 0
BBX 8 9 1 0
BITMAP
7C
00
DC
62
42
42
42
42
E7
ENDCHAR
STARTCHAR napostrophe
ENCODING 329
SWIDTH 885 0
DWIDTH 13 0
BBX 12 10 1 0
BITMAP
C000
4000
C000
0DC0
0620
0420
0420
0420
0420
0E70
ENDCHAR
STARTCHAR Eng
ENCODING 330
SWIDTH 751 0
DWIDTH 11 0
BBX 9 13 1 -3
BITMAP
C380
6100
7100
5100
4900
4D00
4500
4300
4100
E100
0900
0900
0E00
ENDCHAR
STARTCHAR eng
ENCODING 331
SWIDTH 633 0
DWIDTH 9 0
BBX 7 10 1 -3
BITMAP
DC
62
42
42
42
42
E2
12
12
1C
ENDCHAR
STARTCHAR Omacron
ENCODING 332
SWIDTH 777 0
DWIDTH 11 0
BBX 9 12 1 0
BITMAP
1E00
0000
3E00
6300
4100
8080
8080
8080
8080
4100
6300
3E00
ENDCHAR
STARTCHAR omacron
ENCODING 333
SWIDTH 602 0
DWIDTH 8 0
BBX 7 9 1 0
BITMAP
3C
00
38
44
82
82
82
44
38
ENDCHAR
STARTCHAR Obreve
ENCODING 334
SWIDTH 777 0
DWIDTH 11 0
BBX 9 12 1 0
BITMAP
3E00
0000
3E00
6300
4100
8080
8080
8080
8080
4100
6300
3E00
ENDCHAR
STARTCHAR obreve
ENCODING 335
SWIDTH 602 0
DWIDTH 8 0
BBX 7 9 1 0
BITMAP
7C
00
38
44
82
82
82
44
38
ENDCHAR
STARTCHAR Ohungarumlaut
ENCODING 336
SWIDTH 777 0
DWIDTH 11 0
BBX 9 12 1 0
BITMAP
1E00
0000
3E00
6300
4100
8080
8080
8080
8080
4100
6300
3E00
ENDCHAR
STARTCHAR ohungarumlaut
ENCODING 337
SWIDTH 602 0
DWIDTH 8 0
BBX 7 9 1 0
BITMAP
3C
00
38
44
82
82
82
44
38
ENDCHAR
STARTCHAR OE
ENCODING 338
SWIDTH 1014 0
DWIDTH 14 0
BBX 13 10 1 0
BITMAP
3DF8
6308
4108
8110
81F0
8110
8100
4108
6308
3DF8
ENDCHAR
STARTCHAR oe
ENCODING 339
SWIDTH 908 0
DWIDTH 13 0
BBX 12 7 0 0
BITMAP
3DE0
4310
8210
83F0
8200
C300
7DF0
ENDCHAR
STARTCHAR Racute
ENCODING 340
SWIDTH 679 0
DWIDTH 9 0
BBX 9 12 0 0
BITMAP
3800
0000
FC00
4200
4200
4200
4400
7800
4C00
4400
4200
E180
ENDCHAR
STARTCHAR racute
ENCODING 341
SWIDTH 440 0
DWIDTH 6 0
BBX 5 9 0 0
BITMAP
70
00
F8
48
48
40
40
40
E0
ENDCHAR
STARTCHAR Rcommaaccent
ENCODING 342
SWIDTH 679 0
DWIDTH 9 0
BBX 9 16 0 -6
BITMAP
FC00
4200
4200
4200
4400
7800
4C00
4400
4200
E180
0000
1800
1800
0800
0800
1000
ENDCHAR
STARTCHAR rcommaaccent
ENCODING 343
SWIDTH 440 0
DWIDTH 6 0
BBX 5 13 0 -6
BITMAP
F8
48
48
40
40
40
E0
00
60
60
20
20
40
ENDCHAR
STARTCHAR Rcaron
ENCODING 344
SWIDTH 679 0
DWIDTH 9 0
BBX 9 12 0 0
BITMAP
7C00
0000
FC00
4200
4200
4200
4400
7800
4C00
4400
4200
E180
ENDCHAR
STARTCHAR rcaron
ENCODING 345
SWIDTH 440 0
DWIDTH 6 0
BBX 5 9 0 0
BITMAP
F8
00
F8
48
48
40
40
40
E0
ENDCHAR
STARTCHAR Sacute
ENCODING 346
SWIDTH 542 0
DWIDTH 8 0
BBX 6 12 1 0
BITMAP
38
00
7C
84
84
C0
60
18
04
84
8C
F8
ENDCHAR
STARTCHAR sacute
ENCODING 347
SWIDTH 504 0
DWIDTH 7 0
BBX 5 9 1 0
BITMAP
70
00
78
88
88
70
88
88
F0
ENDCHAR
STARTCHAR Scircumflex
ENCODING 348
SWIDTH 542 0
DWIDTH 8 0
BBX 6 12 1 0
BITMAP
7C
00
7C
84
84
C0
60
18
04
84
8C
F8
ENDCHAR
STARTCHAR scircumflex
ENCODING 349
SWIDTH 504 0
DWIDTH 7 0
BBX 5 9 1 0
BITMAP
F8
00
78
88
88
70
88
88
F0
ENDCHAR
STARTCHAR Scedilla
ENCODING 350
SWIDTH 542 0
DWIDTH 8 0
BBX 6 13 1 -3
BITMAP
7C
84
84
C0
60
18
04
84
8C
F8
30
10
30
ENDCHAR
STARTCHAR scedilla
ENCODING 351
SWIDTH 504 0
DWIDTH 7 0
BBX 5 10 1 -3
BITMAP
78
88
88
70
88
88
F0
60
20
60
ENDCHAR
STARTCHAR Scaron
ENCODING 352
SWIDTH 542 0
DWIDTH 8 0
BBX 6 12 1 0
BITMAP
F8
00
7C
84
84
C0
60
18
04
84
8C
F8
ENDCHAR
STARTCHAR scaron
ENCODING 353
SWIDTH 504 0
DWIDTH 7 0
BBX 5 9 1 0
BITMAP
F8
00
78
88
88
70
88
88
F0
ENDCHAR
STARTCHAR Tcommaaccent
ENCODING 354
SWIDTH 663 0
DWIDTH 9 0
BBX 9 13 0 -3
BITMAP
FF80
0800
0800
0800
0800
0800
0800
0800
0800
1C00
0C00
0400
0C00
ENDCHAR
STARTCHAR tcommaaccent
ENCODING 355
SWIDTH 392 0
DWIDTH 5 0
BBX 4 12 1 -3
BITMAP
40
40
F0
40
40
40
40
40
70
60
20
60
ENDCHAR
STARTCHAR Tcaron
ENCODING 356
SWIDTH 663 0
DWIDTH 9 0
BBX 9 12 0 0
BITMAP
3E00
0000
FF80
0800
0800
0800
0800
0800
0800
0800
0800
1C00
ENDCHAR
STARTCHAR tcaron
ENCODING 357
SWIDTH 637 0
DWIDTH 9 0
BBX 7 10 1 0
BITMAP
06
42
46
F0
40
40
40
40
40
70
ENDCHAR
STARTCHAR Tbar
ENCODING 358
SWIDTH 663 0
DWIDTH 9 0
BBX 9 10 0 0
BITMAP
FF80
0800
0800
0800
1C00
0800
0800
0800
0800
1C00
ENDCHAR
STARTCHAR tbar
ENCODING 359
SWIDTH 392 0
DWIDTH 5 0
BBX 4 9 1 0
BITMAP
40
40
F0
40
40
70
40
40
70
ENDCHAR
STARTCHAR Utilde
ENCODING 360
SWIDTH 719 0
DWIDTH 10 0
BBX 9 12 1 0
BITMAP
3E00
0000
E380
4100
4100
4100
4100
4100
4100
4100
6300
3E00
ENDCHAR
STARTCHAR utilde
ENCODING 361
SWIDTH 633 0
DWIDTH 9 0
BBX 8 9 0 0
BITMAP
7C
00
C6
42
42
42
42
46
3B
ENDCHAR
STARTCHAR Umacron
ENCODING 362
SWIDTH 719 0
DWIDTH 10 0
BBX 9 12 1 0
BITMAP
1E00
0000
E380
4100
4100
4100
4100
4100
4100
4100
6300
3E00
ENDCHAR
STARTCHAR umacron
ENCODING 363
SWIDTH 633 0
DWIDTH 9 0
BBX 8 9 0 0
BITMAP
3C
00
C6
42
42
42
42
46
3B
ENDCHAR
STARTCHAR Ubreve
ENCODING 364
SWIDTH 719 0
DWIDTH 10 0
BBX 9 12 1 0
BITMAP
3E00
0000
E380
4100
4100
4100
4100
4100
4100
4100
6300
3E00
ENDCHAR
STARTCHAR ubreve
ENCODING 365
SWIDTH 633 0
DWIDTH 9 0
BBX 8 9 0 0
BITMAP
7C
00
C6
42
42
42
42
46
3B
ENDCHAR
STARTCHAR Uring
ENCODING 366
SWIDTH 719 0
DWIDTH 10 0
BBX 9 14 1 0
BITMAP
0C00
1200
0C00
0000
E380
4100
4100
4100
4100
4100
4100
4100
6300
3E00
ENDCHAR
STARTCHAR uring
ENCODING 367
SWIDTH 633 0
DWIDTH 9 0
BBX 8 11 0 0
BITMAP
18
24
18
00
C6
42
42
42
42
46
3B
ENDCHAR
STARTCHAR Uhungarumlaut
ENCODING 368
SWIDTH 719 0
DWIDTH 10 0
BBX 9 12 1 0
BITMAP
1E00
0000
E380
4100
4100
4100
4100
4100
4100
4100
6300
3E00
ENDCHAR
STARTCHAR uhungarumlaut
ENCODING 369
SWIDTH 633 0
DWIDTH 9 0
BBX 8 9 0 0
BITMAP
3C
00
C6
42
42
42
42
46
3B
ENDCHAR
STARTCHAR Uogonek
ENCODING 370
SWIDTH 719 0
DWIDTH 10 0
BBX 9 13 1 -3
BITMAP
E380
4100
4100
4100
4100
4100
4100
4100
6300
3E00
0000
0000
0C00
ENDCHAR
STARTCHAR uogonek
ENCODING 371
SWIDTH 633 0
DWIDTH 9 0
BBX 8 10 0 -3
BITMAP
C6
42
42
42
42
46
3B
00
00
0C
ENDCHAR
STARTCHAR Wcircumflex
ENCODING 372
SWIDTH 925 0
DWIDTH 13 0
BBX 13 12 0 0
BITMAP
0F80
0000
F238
4210
2710
2520
2520
2520
18C0
18C0
18C0
1040
ENDCHAR
STARTCHAR wcircumflex
ENCODING 373
SWIDTH 795 0
DWIDTH 11 0
BBX 11 9 0 0
BITMAP
1F00
0000
E460
4460
4E40
2A40
2980
3180
1100
ENDCHAR
STARTCHAR Ycircumflex
ENCODING 374
SWIDTH 678 0
DWIDTH 9 0
BBX 9 12 0 0
BITMAP
3E00
0000
F380
6100
2300
1200
0C00
0800
0800
0800
0800
1C00
ENDCHAR
STARTCHAR ycircumflex
ENCODING 375
SWIDTH 551 0
DWIDTH 8 0
BBX 8 12 0 -3
BITMAP
3E
00
F3
43
22
26
14
1C
18
08
10
70
ENDCHAR
STARTCHAR Ydieresis
ENCODING 376
SWIDTH 678 0
DWIDTH 9 0
BBX 9 12 0 0
BITMAP
2400
0000
F380
6100
2300
1200
0C00
0800
0800
0800
0800
1C00
ENDCHAR
STARTCHAR Zacute
ENCODING 377
SWIDTH 633 0
DWIDTH 9 0
BBX 7 12 1 0
BITMAP
38
00
FE
84
0C
08
10
10
20
40
42
FE
ENDCHAR
STARTCHAR zacute
ENCODING 378
SWIDTH 595 0
DWIDTH 8 0
BBX 6 9 1 0
BITMAP
70
00
FC
88
10
20
20
44
FC
ENDCHAR
STARTCHAR Zdotaccent
ENCODING 379
SWIDTH 633 0
DWIDTH 9 0
BBX 7 12 1 0
BITMAP
10
00
FE
84
0C
08
10
10
20
40
42
FE
ENDCHAR
STARTCHAR zdotaccent
ENCODING 380
SWIDTH 595 0
DWIDTH 8 0
BBX 6 9 1 0
BITMAP
20
00
FC
88
10
20
20
44
FC
ENDCHAR
STARTCHAR Zcaron
ENCODING 381
SWIDTH 633 0
DWIDTH 9 0
BBX 7 12 1 0
BITMAP
7C
00
FE
84
0C
08
10
10
20
40
42
FE
ENDCHAR
STARTCHAR zcaron
ENCODING 382
SWIDTH 595 0
DWIDTH 8 0
BBX 6 9 1 0
BITMAP
F8
00
FC
88
10
20
20
44
FC
ENDCHAR
STARTCHAR uni0186
ENCODING 390
SWIDTH 695 0
DWIDTH 10 0
BBX 8 10 1 0
BITMAP
7C
86
02
01
01
01
01
82
86
F8
ENDCHAR
STARTCHAR uni0189
ENCODING 393
SWIDTH 768 0
DWIDTH 11 0
BBX 9 10 1 0
BITMAP
FE00
4300
4180
4080
F080
4080
4080
4080
4100
FE00
ENDCHAR
STARTCHAR uni018E
ENCODING 398
SWIDTH 566 0
DWIDTH 8 0
BBX 6 10 1 0
BITMAP
FC
88
08
08
48
78
48
08
88
FC
ENDCHAR
STARTCHAR florin
ENCODING 402
SWIDTH 608 0
DWIDTH 9 0
BBX 7 13 1 -3
BITMAP
0E
12
22
20
20
F0
60
60
40
40
40
C0
C0
ENDCHAR
STARTCHAR uni0197
ENCODING 407
SWIDTH 325 0
DWIDTH 5 0
BBX 3 10 1 0
BITMAP
E0
40
40
40
E0
40
40
40
40
E0
ENDCHAR
STARTCHAR uni019A
ENCODING 410
SWIDTH 313 0
DWIDTH 4 0
BBX 3 10 1 0
BITMAP
C0
40
40
40
E0
40
40
40
40
E0
ENDCHAR
STARTCHAR uni019D
ENCODING 413
SWIDTH 751 0
DWIDTH 11 0
BBX 11 13 -1 -3
BITMAP
30E0
1840
1C40
1440
1240
1340
1140
10C0
1040
1040
9000
9000
E000
ENDCHAR
STARTCHAR uni019F
ENCODING 415
SWIDTH 777 0
DWIDTH 11 0
BBX 9 10 1 0
BITMAP
3E00
6300
4100
8080
FF80
8080
8080
4100
6300
3E00
ENDCHAR
STARTCHAR Ohorn
ENCODING 416
SWIDTH 777 0
DWIDTH 11 0
BBX 10 10 1 0
BITMAP
3EC0
6340
41C0
8080
8080
8080
8080
4100
6300
3E00
ENDCHAR
STARTCHAR ohorn
ENCODING 417
SWIDTH 602 0
DWIDTH 8 0
BBX 9 7 1 0
BITMAP
3980
4480
8380
8200
8200
4400
3800
ENDCHAR
STARTCHAR uni01A7
ENCODING 423
SWIDTH 542 0
DWIDTH 8 0
BBX 6 10 1 0
BITMAP
F8
84
84
0C
18
60
80
84
C4
7C
ENDCHAR
STARTCHAR uni01A8
ENCODING 424
SWIDTH 504 0
DWIDTH 7 0
BBX 5 7 1 0
BITMAP
F0
88
88
70
88
88
78
ENDCHAR
STARTCHAR uni01AE
ENCODING 430
SWIDTH 663 0
DWIDTH 9 0
BBX 9 13 0 -3
BITMAP
FF80
0800
0800
0800
0800
0800
0800
0800
0800
0800
0900
0900
0700
ENDCHAR
STARTCHAR Uhorn
ENCODING 431
SWIDTH 719 0
DWIDTH 10 0
BBX 10 10 1 0
BITMAP
E3C0
4140
41C0
4100
4100
4100
4100
4100
6300
3E00
ENDCHAR
STARTCHAR uhorn
ENCODING 432
SWIDTH 633 0
DWIDTH 9 0
BBX 10 7 0 0
BITMAP
C6C0
4240
42C0
4200
4200
4600
3B00
ENDCHAR
STARTCHAR uni01B5
ENCODING 437
SWIDTH 633 0
DWIDTH 9 0
BBX 7 10 1 0
BITMAP
FE
84
0C
08
38
10
20
40
42
FE
ENDCHAR
STARTCHAR uni01B6
ENCODING 438
SWIDTH 595 0
DWIDTH 8 0
BBX 6 7 1 0
BITMAP
FC
88
10
38
20
44
FC
ENDCHAR
STARTCHAR uni01BB
ENCODING 443
SWIDTH 608 0
DWIDTH 9 0
BBX 6 10 1 0
BITMAP
78
8C
84
04
FC
18
20
40
80
FC
ENDCHAR
STARTCHAR uni01BC
ENCODING 444
SWIDTH 608 0
DWIDTH 9 0
BBX 5 10 2 0
BITMAP
F8
80
80
E0
10
08
08
88
90
F0
ENDCHAR
STARTCHAR uni01C0
ENCODING 448
SWIDTH 241 0
DWIDTH 3 0
BBX 1 13 1 -3
BITMAP
80
80
80
80
80
80
80
80
80
80
80
80
80
ENDCHAR
STARTCHAR uni01C2
ENCODING 450
SWIDTH 608 0
DWIDTH 9 0
BBX 8 13 0 -2
BITMAP
08
08
08
08
08
FF
08
08
FF
08
08
08
08
ENDCHAR
STARTCHAR uni01C3
ENCODING 451
SWIDTH 265 0
DWIDTH 4 0
BBX 1 10 1 0
BITMAP
80
80
80
80
80
80
80
00
00
80
ENDCHAR
STARTCHAR uni01CD
ENCODING 461
SWIDTH 744 0
DWIDTH 10 0
BBX 10 12 0 0
BITMAP
3E00
0000
0800
0C00
1C00
1400
1200
2200
3F00
4100
4180
E3C0
ENDCHAR
STARTCHAR uni01CE
ENCODING 462
SWIDTH 543 0
DWIDTH 8 0
BBX 7 9 0 0
BITMAP
7C
00
78
84
04
7C
84
84
7E
ENDCHAR
STARTCHAR uni01CF
ENCODING 463
SWIDTH 325 0
DWIDTH 5 0
BBX 5 12 0 0
BITMAP
F8
00
70
20
20
20
20
20
20
20
20
70
ENDCHAR
STARTCHAR uni01D0
ENCODING 464
SWIDTH 307 0
DWIDTH 4 0
BBX 5 9 0 0
BITMAP
F8
00
60
20
20
20
20
20
70
ENDCHAR
STARTCHAR uni01D1
ENCODING 465
SWIDTH 777 0
DWIDTH 11 0
BBX 9 12 1 0
BITMAP
3E00
0000
3E00
6300
4100
8080
8080
8080
8080
4100
6300
3E00
ENDCHAR
STARTCHAR uni01D2
ENCODING 466
SWIDTH 602 0
DWIDTH 8 0
BBX 7 9 1 0
BITMAP
7C
00
38
44
82
82
82
44
38
ENDCHAR
STARTCHAR uni01D3
ENCODING 467
SWIDTH 719 0
DWIDTH 10 0
BBX 9 12 1 0
BITMAP
3E00
0000
E380
4100
4100
4100
4100
4100
4100
4100
6300
3E00
ENDCHAR
STARTCHAR uni01D4
ENCODING 468
SWIDTH 633 0
DWIDTH 9 0
BBX 8 9 0 0
BITMAP
7C
00
C6
42
42
42
42
46
3B
ENDCHAR
STARTCHAR uni01D5
ENCODING 469
SWIDTH 719 0
DWIDTH 10 0
BBX 9 14 1 0
BITMAP
1E00
0000
1200
0000
E380
4100
4100
4100
4100
4100
4100
4100
6300
3E00
ENDCHAR
STARTCHAR uni01D6
ENCODING 470
SWIDTH 633 0
DWIDTH 9 0
BBX 8 11 0 0
BITMAP
3C
00
24
00
C6
42
42
42
42
46
3B
ENDCHAR
STARTCHAR uni01D7
ENCODING 471
SWIDTH 719 0
DWIDTH 10 0
BBX 9 14 1 0
BITMAP
1C00
0000
1200
0000
E380
4100
4100
4100
4100
4100
4100
4100
6300
3E00
ENDCHAR
STARTCHAR uni01D8
ENCODING 472
SWIDTH 633 0
DWIDTH 9 0
BBX 8 11 0 0
BITMAP
38
00
24
00
C6
42
42
42
42
46
3B
ENDCHAR
STARTCHAR uni01D9
ENCODING 473
SWIDTH 719 0
DWIDTH 10 0
BBX 9 14 1 0
BITMAP
3E00
0000
1200
0000
E380
4100
4100
4100
4100
4100
4100
4100
6300
3E00
ENDCHAR
STARTCHAR uni01DA
ENCODING 474
SWIDTH 633 0
DWIDTH 9 0
BBX 8 11 0 0
BITMAP
7C
00
24
00
C6
42
42
42
42
46
3B
ENDCHAR
STARTCHAR uni01DB
ENCODING 475
SWIDTH 719 0
DWIDTH 10 0
BBX 9 14 1 0
BITMAP
1C00
0000
1200
0000
E380
4100
4100
4100
4100
4100
4100
4100
6300
3E00
ENDCHAR
STARTCHAR uni01DC
ENCODING 476
SWIDTH 633 0
DWIDTH 9 0
BBX 8 11 0 0
BITMAP
38
00
24
00
C6
42
42
42
42
46
3B
ENDCHAR
STARTCHAR uni01DD
ENCODING 477
SWIDTH 530 0
DWIDTH 7 0
BBX 6 7 1 0
BITMAP
70
88
04
FC
84
8C
78
ENDCHAR
STARTCHAR uni01DE
ENCODING 478
SWIDTH 744 0
DWIDTH 10 0
BBX 10 14 0 0
BITMAP
1E00
0000
1200
0000
0800
0C00
1C00
1400
1200
2200
3F00
4100
4180
E3C0
ENDCHAR
STARTCHAR uni01DF
ENCODING 479
SWIDTH 543 0
DWIDTH 8 0
BBX 7 11 0 0
BITMAP
78
00
48
00
78
84
04
7C
84
84
7E
ENDCHAR
STARTCHAR uni01E0
ENCODING 480
SWIDTH 744 0
DWIDTH 10 0
BBX 10 14 0 0
BITMAP
1E00
0000
0800
0000
0800
0C00
1C00
1400
1200
2200
3F00
4100
4180
E3C0
ENDCHAR
STARTCHAR uni01E1
ENCODING 481
SWIDTH 543 0
DWIDTH 8 0
BBX 7 11 0 0
BITMAP
78
00
10
00
78
84
04
7C
84
84
7E
ENDCHAR
STARTCHAR uni01E2
ENCODING 482
SWIDTH 919 0
DWIDTH 13 0
BBX 13 12 0 0
BITMAP
03C0
0000
03F8
0308
0700
0D10
09F0
1110
3F00
2100
4108
E3F8
ENDCHAR
STARTCHAR uni01E3
ENCODING 483
SWIDTH 819 0
DWIDTH 11 0
BBX 10 9 1 0
BITMAP
1E00
0000
7B80
8C40
0840
7FC0
8800
8C40
7380
ENDCHAR
STARTCHAR uni01E4
ENCODING 484
SWIDTH 732 0
DWIDTH 10 0
BBX 9 10 1 0
BITMAP
1F00
6100
4100
8000
8000
8380
8100
4380
6100
3F00
ENDCHAR
STARTCHAR uni01E5
ENCODING 485
SWIDTH 571 0
DWIDTH 8 0
BBX 8 10 0 -3
BITMAP
3F
66
42
62
3C
40
7F
FF
81
7E
ENDCHAR
STARTCHAR Gcaron
ENCODING 486
SWIDTH 732 0
DWIDTH 10 0
BBX 9 12 1 0
BITMAP
3E00
0000
1F00
6100
4100
8000
8000
8380
8100
4100
6100
3F00
ENDCHAR
STARTCHAR gcaron
ENCODING 487
SWIDTH 571 0
DWIDTH 8 0
BBX 8 12 0 -3
BITMAP
3E
00
3F
66
42
62
3C
40
7F
81
81
7E
ENDCHAR
STARTCHAR uni01E8
ENCODING 488
SWIDTH 708 0
DWIDTH 10 0
BBX 10 12 0 0
BITMAP
3E00
0000
E780
4300
4400
5800
7000
5000
4C00
4600
4300
E7C0
ENDCHAR
STARTCHAR uni01E9
ENCODING 489
SWIDTH 599 0
DWIDTH 8 0
BBX 8 12 0 0
BITMAP
F8
00
C0
40
40
4E
4C
58
60
58
4C
E7
ENDCHAR
STARTCHAR uni01EA
ENCODING 490
SWIDTH 777 0
DWIDTH 11 0
BBX 9 13 1 -3
BITMAP
3E00
6300
4100
8080
8080
8080
8080
4100
6300
3E00
0000
0000
0C00
ENDCHAR
STARTCHAR uni01EB
ENCODING 491
SWIDTH 602 0
DWIDTH 8 0
BBX 7 10 1 -3
BITMAP
38
44
82
82
82
44
38
00
00
18
ENDCHAR
STARTCHAR uni01EC
ENCODING 492
SWIDTH 777 0
DWIDTH 11 0
BBX 9 15 1 -3
BITMAP
1E00
0000
3E00
6300
4100
8080
8080
8080
8080
4100
6300
3E00
0000
0000
0C00
ENDCHAR
STARTCHAR uni01ED
ENCODING 493
SWIDTH 602 0
DWIDTH 8 0
BBX 7 12 1 -3
BITMAP
3C
00
38
44
82
82
82
44
38
00
00
18
ENDCHAR
STARTCHAR uni01F0
ENCODING 496
SWIDTH 346 0
DWIDTH 5 0
BBX 5 12 0 -3
BITMAP
F8
00
30
10
10
10
10
10
10
90
90
E0
ENDCHAR
STARTCHAR uni01F4
ENCODING 500
SWIDTH 732 0
DWIDTH 10 0
BBX 9 12 1 0
BITMAP
1C00
0000
1F00
6100
4100
8000
8000
8380
8100
4100
6100
3F00
ENDCHAR
STARTCHAR uni01F5
ENCODING 501
SWIDTH 571 0
DWIDTH 8 0
BBX 8 12 0 -3
BITMAP
1C
00
3F
66
42
62
3C
40
7F
81
81
7E
ENDCHAR
STARTCHAR uni01F8
ENCODING 504
SWIDTH 751 0
DWIDTH 11 0
BBX 9 12 1 0
BITMAP
1C00
0000
C380
6100
7100
5100
4900
4D00
4500
4300
4100
E100
ENDCHAR
STARTCHAR uni01F9
ENCODING 505
SWIDTH 633 0
DWIDTH 9 0
BBX 8 9 1 0
BITMAP
38
00
DC
62
42
42
42
42
E7
ENDCHAR
STARTCHAR Aringacute
ENCODING 506
SWIDTH 744 0
DWIDTH 10 0
BBX 10 15 0 0
BITMAP
1C00
0000
0C00
1200
0C00
0800
0C00
1C00
1400
1200
2200
3F00
4100
4180
E3C0
ENDCHAR
STARTCHAR aringacute
ENCODING 507
SWIDTH 543 0
DWIDTH 8 0
BBX 7 12 0 0
BITMAP
38
00
30
48
00
78
84
04
7C
84
84
7E
ENDCHAR
STARTCHAR AEacute
ENCODING 508
SWIDTH 919 0
DWIDTH 13 0
BBX 13 12 0 0
BITMAP
0380
0000
03F8
0308
0700
0D10
09F0
1110
3F00
2100
4108
E3F8
ENDCHAR
STARTCHAR aeacute
ENCODING 509
SWIDTH 819 0
DWIDTH 11 0
BBX 10 9 1 0
BITMAP
1C00
0000
7B80
8C40
0840
7FC0
8800
8C40
7380
ENDCHAR
STARTCHAR Oslashacute
ENCODING 510
SWIDTH 777 0
DWIDTH 11 0
BBX 9 12 1 0
BITMAP
0E00
0000
3E80
6180
4180
8680
8C80
9880
B080
E100
4300
BE00
ENDCHAR
STARTCHAR oslashacute
ENCODING 511
SWIDTH 602 0
DWIDTH 8 0
BBX 7 9 1 0
BITMAP
1C
00
3A
46
8E
92
E2
C4
B8
ENDCHAR
STARTCHAR uni0200
ENCODING 512
SWIDTH 744 0
DWIDTH 10 0
BBX 10 12 0 0
BITMAP
1E00
0000
0800
0C00
1C00
1400
1200
2200
3F00
4100
4180
E3C0
ENDCHAR
STARTCHAR uni0201
ENCODING 513
SWIDTH 543 0
DWIDTH 8 0
BBX 7 9 0 0
BITMAP
78
00
78
84
04
7C
84
84
7E
ENDCHAR
STARTCHAR uni0202
ENCODING 514
SWIDTH 744 0
DWIDTH 10 0
BBX 10 12 0 0
BITMAP
3E00
0000
0800
0C00
1C00
1400
1200
2200
3F00
4100
4180
E3C0
ENDCHAR
STARTCHAR uni0203
ENCODING 515
SWIDTH 543 0
DWIDTH 8 0
BBX 7 9 0 0
BITMAP
7C
00
78
84
04
7C
84
84
7E
ENDCHAR
STARTCHAR uni0204
ENCODING 516
SWIDTH 566 0
DWIDTH 8 0
BBX 6 12 1 0
BITMAP
78
00
FC
44
40
48
78
48
40
40
44
FC
ENDCHAR
STARTCHAR uni0205
ENCODING 517
SWIDTH 530 0
DWIDTH 7 0
BBX 6 9 1 0
BITMAP
78
00
78
C4
84
FC
80
44
38
ENDCHAR
STARTCHAR uni0206
ENCODING 518
SWIDTH 566 0
DWIDTH 8 0
BBX 6 12 1 0
BITMAP
F8
00
FC
44
40
48
78
48
40
40
44
FC
ENDCHAR
STARTCHAR uni0207
ENCODING 519
SWIDTH 530 0
DWIDTH 7 0
BBX 6 9 1 0
BITMAP
F8
00
78
C4
84
FC
80
44
38
ENDCHAR
STARTCHAR uni0208
ENCODING 520
SWIDTH 325 0
DWIDTH 5 0
BBX 4 12 1 0
BITMAP
F0
00
E0
40
40
40
40
40
40
40
40
E0
ENDCHAR
STARTCHAR uni0209
ENCODING 521
SWIDTH 307 0
DWIDTH 4 0
BBX 4 9 0 0
BITMAP
F0
00
60
20
20
20
20
20
70
ENDCHAR
STARTCHAR uni020A
ENCODING 522
SWIDTH 325 0
DWIDTH 5 0
BBX 5 12 0 0
BITMAP
F8
00
70
20
20
20
20
20
20
20
20
70
ENDCHAR
STARTCHAR uni020B
ENCODING 523
SWIDTH 307 0
DWIDTH 4 0
BBX 5 9 0 0
BITMAP
F8
00
60
20
20
20
20
20
70
ENDCHAR
STARTCHAR uni020C
ENCODING 524
SWIDTH 777 0
DWIDTH 11 0
BBX 9 12 1 0
BITMAP
1E00
0000
3E00
6300
4100
8080
8080
8080
8080
4100
6300
3E00
ENDCHAR
STARTCHAR uni020D
ENCODING 525
SWIDTH 602 0
DWIDTH 8 0
BBX 7 9 1 0
BITMAP
3C
00
38
44
82
82
82
44
38
ENDCHAR
STARTCHAR uni020E
ENCODING 526
SWIDTH 777 0
DWIDTH 11 0
BBX 9 12 1 0
BITMAP
3E00
0000
3E00
6300
4100
8080
8080
8080
8080
4100
6300
3E00
ENDCHAR
STARTCHAR uni020F
ENCODING 527
SWIDTH 602 0
DWIDTH 8 0
BBX 7 9 1 0
BITMAP
7C
00
38
44
82
82
82
44
38
ENDCHAR
STARTCHAR uni0210
ENCODING 528
SWIDTH 679 0
DWIDTH 9 0
BBX 9 12 0 0
BITMAP
3C00
0000
FC00
4200
4200
4200
4400
7800
4C00
4400
4200
E180
ENDCHAR
STARTCHAR uni0211
ENCODING 529
SWIDTH 440 0
DWIDTH 6 0
BBX 5 9 0 0
BITMAP
78
00
F8
48
48
40
40
40
E0
ENDCHAR
STARTCHAR uni0212
ENCODING 530
SWIDTH 679 0
DWIDTH 9 0
BBX 9 12 0 0
BITMAP
7C00
0000
FC00
4200
4200
4200
4400
7800
4C00
4400
4200
E180
ENDCHAR
STARTCHAR uni0213
ENCODING 531
SWIDTH 440 0
DWIDTH 6 0
BBX 5 9 0 0
BITMAP
F8
00
F8
48
48
40
40
40
E0
ENDCHAR
STARTCHAR uni0214
ENCODING 532
SWIDTH 719 0
DWIDTH 10 0
BBX 9 12 1 0
BITMAP
1E00
0000
E380
4100
4100
4100
4100
4100
4100
4100
6300
3E00
ENDCHAR
STARTCHAR uni0215
ENCODING 533
SWIDTH 633 0
DWIDTH 9 0
BBX 8 9 0 0
BITMAP
3C
00
C6
42
42
42
42
46
3B
ENDCHAR
STARTCHAR uni0216
ENCODING 534
SWIDTH 719 0
DWIDTH 10 0
BBX 9 12 1 0
BITMAP
3E00
0000
E380
4100
4100
4100
4100
4100
4100
4100
6300
3E00
ENDCHAR
STARTCHAR uni0217
ENCODING 535
SWIDTH 633 0
DWIDTH 9 0
BBX 8 9 0 0
BITMAP
7C
00
C6
42
42
42
42
46
3B
ENDCHAR
STARTCHAR Scommaaccent
ENCODING 536
SWIDTH 542 0
DWIDTH 8 0
BBX 6 16 1 -6
BITMAP
7C
84
84
C0
60
18
04
84
8C
F8
00
30
30
10
10
20
ENDCHAR
STARTCHAR scommaaccent
ENCODING 537
SWIDTH 504 0
DWIDTH 7 0
BBX 5 13 1 -6
BITMAP
78
88
88
70
88
88
F0
00
60
60
20
20
40
ENDCHAR
STARTCHAR Tcommaaccent
ENCODING 538
SWIDTH 663 0
DWIDTH 9 0
BBX 9 16 0 -6
BITMAP
FF80
0800
0800
0800
0800
0800
0800
0800
0800
1C00
0000
0C00
0C00
0400
0400
0800
ENDCHAR
STARTCHAR tcommaaccent
ENCODING 539
SWIDTH 392 0
DWIDTH 5 0
BBX 4 15 1 -6
BITMAP
40
40
F0
40
40
40
40
40
70
00
60
60
20
20
40
ENDCHAR
STARTCHAR uni021E
ENCODING 542
SWIDTH 771 0
DWIDTH 11 0
BBX 10 12 0 0
BITMAP
1F00
0000
E1C0
4080
4080
4080
7F80
4080
4080
4080
4080
E1C0
ENDCHAR
STARTCHAR uni021F
ENCODING 543
SWIDTH 633 0
DWIDTH 9 0
BBX 8 12 1 0
BITMAP
F8
00
C0
40
40
5C
62
42
42
42
42
E7
ENDCHAR
STARTCHAR uni0226
ENCODING 550
SWIDTH 744 0
DWIDTH 10 0
BBX 10 12 0 0
BITMAP
0800
0000
0800
0C00
1C00
1400
1200
2200
3F00
4100
4180
E3C0
ENDCHAR
STARTCHAR uni0227
ENCODING 551
SWIDTH 543 0
DWIDTH 8 0
BBX 7 9 0 0
BITMAP
10
00
78
84
04
7C
84
84
7E
ENDCHAR
STARTCHAR uni0228
ENCODING 552
SWIDTH 566 0
DWIDTH 8 0
BBX 6 13 1 -3
BITMAP
FC
44
40
48
78
48
40
40
44
FC
30
10
30
ENDCHAR
STARTCHAR uni0229
ENCODING 553
SWIDTH 530 0
DWIDTH 7 0
BBX 6 10 1 -3
BITMAP
78
C4
84
FC
80
44
38
30
10
30
ENDCHAR
STARTCHAR uni022A
ENCODING 554
SWIDTH 777 0
DWIDTH 11 0
BBX 9 14 1 0
BITMAP
3C00
0000
2400
0000
3E00
6300
4100
8080
8080
8080
8080
4100
6300
3E00
ENDCHAR
STARTCHAR uni022B
ENCODING 555
SWIDTH 602 0
DWIDTH 8 0
BBX 7 11 1 0
BITMAP
78
00
48
00
38
44
82
82
82
44
38
ENDCHAR
STARTCHAR uni022C
ENCODING 556
SWIDTH 777 0
DWIDTH 11 0
BBX 9 14 1 0
BITMAP
1E00
0000
3E00
0000
3E00
6300
4100
8080
8080
8080
8080
4100
6300
3E00
ENDCHAR
STARTCHAR uni022D
ENCODING 557
SWIDTH 602 0
DWIDTH 8 0
BBX 7 11 1 0
BITMAP
3C
00
7C
00
38
44
82
82
82
44
38
ENDCHAR
STARTCHAR uni022E
ENCODING 558
SWIDTH 777 0
DWIDTH 11 0
BBX 9 12 1 0
BITMAP
0800
0000
3E00
6300
4100
8080
8080
8080
8080
4100
6300
3E00
ENDCHAR
STARTCHAR uni022F
ENCODING 559
SWIDTH 602 0
DWIDTH 8 0
BBX 7 9 1 0
BITMAP
10
00
38
44
82
82
82
44
38
ENDCHAR
STARTCHAR uni0230
ENCODING 560
SWIDTH 777 0
DWIDTH 11 0
BBX 9 14 1 0
BITMAP
1E00
0000
0800
0000
3E00
6300
4100
8080
8080
8080
8080
4100
6300
3E00
ENDCHAR
STARTCHAR uni0231
ENCODING 561
SWIDTH 602 0
DWIDTH 8 0
BBX 7 11 1 0
BITMAP
3C
00
10
00
38
44
82
82
82
44
38
ENDCHAR
STARTCHAR uni0232
ENCODING 562
SWIDTH 678 0
DWIDTH 9 0
BBX 9 12 0 0
BITMAP
1E00
0000
F380
6100
2300
1200
0C00
0800
0800
0800
0800
1C00
ENDCHAR
STARTCHAR uni0233
ENCODING 563
SWIDTH 551 0
DWIDTH 8 0
BBX 8 12 0 -3
BITMAP
3C
00
F3
43
22
26
14
1C
18
08
10
70
ENDCHAR
STARTCHAR uni0250
ENCODING 592
SWIDTH 543 0
DWIDTH 8 0
BBX 7 7 0 0
BITMAP
FC
42
42
7C
40
42
3C
ENDCHAR
STARTCHAR uni0254
ENCODING 596
SWIDTH 509 0
DWIDTH 7 0
BBX 6 7 1 0
BITMAP
F0
88
84
04
04
08
F0
ENDCHAR
STARTCHAR uni0258
ENCODING 600
SWIDTH 530 0
DWIDTH 7 0
BBX 6 7 1 0
BITMAP
78
8C
84
FC
04
88
70
ENDCHAR
STARTCHAR uni0259
ENCODING 601
SWIDTH 530 0
DWIDTH 7 0
BBX 6 7 1 0
BITMAP
70
88
04
FC
84
8C
78
ENDCHAR
STARTCHAR uni025F
ENCODING 607
SWIDTH 404 0
DWIDTH 6 0
BBX 5 11 1 -4
BITMAP
78
10
10
10
10
10
78
10
90
90
E0
ENDCHAR
STARTCHAR uni0265
ENCODING 613
SWIDTH 633 0
DWIDTH 9 0
BBX 8 10 1 -3
BITMAP
E7
42
42
42
42
46
3A
02
02
03
ENDCHAR
STARTCHAR uni0275
ENCODING 629
SWIDTH 602 0
DWIDTH 8 0
BBX 7 7 1 0
BITMAP
38
44
82
FE
82
44
38
ENDCHAR
STARTCHAR uni0279
ENCODING 633
SWIDTH 440 0
DWIDTH 6 0
BBX 5 7 0 0
BITMAP
38
10
10
10
90
90
F8
ENDCHAR
STARTCHAR uni0287
ENCODING 647
SWIDTH 392 0
DWIDTH 5 0
BBX 4 9 1 0
BITMAP
E0
20
20
20
20
20
F0
20
20
ENDCHAR
STARTCHAR uni0288
ENCODING 648
SWIDTH 392 0
DWIDTH 5 0
BBX 5 12 1 -3
BITMAP
40
40
F0
40
40
40
40
40
40
48
48
38
ENDCHAR
STARTCHAR uni0289
ENCODING 649
SWIDTH 633 0
DWIDTH 9 0
BBX 8 7 0 0
BITMAP
C6
42
42
FF
42
46
3B
ENDCHAR
STARTCHAR uni028C
ENCODING 652
SWIDTH 545 0
DWIDTH 8 0
BBX 8 7 0 0
BITMAP
10
18
28
24
44
C2
C7
ENDCHAR
STARTCHAR uni028D
ENCODING 653
SWIDTH 795 0
DWIDTH 11 0
BBX 11 7 0 0
BITMAP
1100
3180
3280
4A80
4E40
C440
C4E0
ENDCHAR
STARTCHAR uni028E
ENCODING 654
SWIDTH 551 0
DWIDTH 8 0
BBX 8 10 0 0
BITMAP
0E
08
10
18
38
28
64
44
C2
CF
ENDCHAR
STARTCHAR uni029E
ENCODING 670
SWIDTH 599 0
DWIDTH 8 0
BBX 8 10 0 -3
BITMAP
E7
32
1A
06
1A
32
72
02
02
03
ENDCHAR
STARTCHAR uni02BB
ENCODING 699
SWIDTH 265 0
DWIDTH 4 0
BBX 2 3 1 7
BITMAP
C0
80
C0
ENDCHAR
STARTCHAR afii57929
ENCODING 700
SWIDTH 265 0
DWIDTH 4 0
BBX 2 3 1 7
BITMAP
C0
40
C0
ENDCHAR
STARTCHAR afii64937
ENCODING 701
SWIDTH 265 0
DWIDTH 4 0
BBX 2 3 1 7
BITMAP
C0
80
C0
ENDCHAR
STARTCHAR circumflex
ENCODING 710
SWIDTH 602 0
DWIDTH 8 0
BBX 5 1 2 9
BITMAP
F8
ENDCHAR
STARTCHAR caron
ENCODING 711
SWIDTH 602 0
DWIDTH 8 0
BBX 5 1 2 9
BITMAP
F8
ENDCHAR
STARTCHAR uni02C8
ENCODING 712
SWIDTH 241 0
DWIDTH 3 0
BBX 3 3 0 7
BITMAP
E0
E0
40
ENDCHAR
STARTCHAR macron
ENCODING 713
SWIDTH 602 0
DWIDTH 8 0
BBX 4 1 2 9
BITMAP
F0
ENDCHAR
STARTCHAR uni02CA
ENCODING 714
SWIDTH 602 0
DWIDTH 8 0
BBX 3 1 3 9
BITMAP
E0
ENDCHAR
STARTCHAR uni02CB
ENCODING 715
SWIDTH 602 0
DWIDTH 8 0
BBX 3 1 3 9
BITMAP
E0
ENDCHAR
STARTCHAR uni02CD
ENCODING 717
SWIDTH 602 0
DWIDTH 8 0
BBX 4 1 2 -2
BITMAP
F0
ENDCHAR
STARTCHAR uni02CE
ENCODING 718
SWIDTH 602 0
DWIDTH 8 0
BBX 3 1 3 -2
BITMAP
E0
ENDCHAR
STARTCHAR uni02CF
ENCODING 719
SWIDTH 602 0
DWIDTH 8 0
BBX 3 1 3 -2
BITMAP
E0
ENDCHAR
STARTCHAR breve
ENCODING 728
SWIDTH 602 0
DWIDTH 8 0
BBX 5 1 2 9
BITMAP
F8
ENDCHAR
STARTCHAR dotaccent
ENCODING 729
SWIDTH 602 0
DWIDTH 8 0
BBX 1 1 4 9
BITMAP
80
ENDCHAR
STARTCHAR ring
ENCODING 730
SWIDTH 602 0
DWIDTH 8 0
BBX 4 3 4 9
BITMAP
60
90
60
ENDCHAR
STARTCHAR ogonek
ENCODING 731
SWIDTH 602 0
DWIDTH 8 0
BBX 2 1 3 -3
BITMAP
C0
ENDCHAR
STARTCHAR tilde
ENCODING 732
SWIDTH 602 0
DWIDTH 8 0
BBX 5 1 2 9
BITMAP
F8
ENDCHAR
STARTCHAR hungarumlaut
ENCODING 733
SWIDTH 602 0
DWIDTH 8 0
BBX 4 1 3 9
BITMAP
F0
ENDCHAR
STARTCHAR uni02EE
ENCODING 750
SWIDTH 458 0
DWIDTH 6 0
BBX 4 3 1 7
BITMAP
90
90
90
ENDCHAR
STARTCHAR uni037E
ENCODING 894
SWIDTH 265 0
DWIDTH 4 0
BBX 1 10 1 -3
BITMAP
80
00
00
00
00
00
80
80
80
80
ENDCHAR
STARTCHAR tonos
ENCODING 900
SWIDTH 602 0
DWIDTH 8 0
BBX 3 1 3 9
BITMAP
E0
ENDCHAR
STARTCHAR dieresistonos
ENCODING 901
SWIDTH 602 0
DWIDTH 8 0
BBX 4 3 2 9
BITMAP
70
00
90
ENDCHAR
STARTCHAR anoteleia
ENCODING 903
SWIDTH 608 0
DWIDTH 9 0
BBX 1 1 4 4
BITMAP
80
ENDCHAR
STARTCHAR mu
ENCODING 956
SWIDTH 626 0
DWIDTH 9 0
BBX 8 10 0 -3
BITMAP
C6
42
42
42
42
46
7B
40
40
40
ENDCHAR
STARTCHAR uni1E00
ENCODING 7680
SWIDTH 744 0
DWIDTH 10 0
BBX 10 14 0 -4
BITMAP
0800
0C00
1C00
1400
1200
2200
3F00
4100
4180
E3C0
0000
0C00
1200
0C00
ENDCHAR
STARTCHAR uni1E01
ENCODING 7681
SWIDTH 543 0
DWIDTH 8 0
BBX 7 11 0 -4
BITMAP
78
84
04
7C
84
84
7E
00
18
24
18
ENDCHAR
STARTCHAR uni1E02
ENCODING 7682
SWIDTH 609 0
DWIDTH 9 0
BBX 7 12 1 0
BITMAP
10
00
FC
42
42
44
7C
46
42
42
46
FC
ENDCHAR
STARTCHAR uni1E03
ENCODING 7683
SWIDTH 611 0
DWIDTH 9 0
BBX 8 12 0 0
BITMAP
20
00
C0
40
40
5E
63
41
41
41
42
7C
ENDCHAR
STARTCHAR uni1E04
ENCODING 7684
SWIDTH 609 0
DWIDTH 9 0
BBX 7 12 1 -2
BITMAP
FC
42
42
44
7C
46
42
42
46
FC
00
10
ENDCHAR
STARTCHAR uni1E05
ENCODING 7685
SWIDTH 611 0
DWIDTH 9 0
BBX 8 12 0 -2
BITMAP
C0
40
40
5E
63
41
41
41
42
7C
00
10
ENDCHAR
STARTCHAR uni1E06
ENCODING 7686
SWIDTH 609 0
DWIDTH 9 0
BBX 7 12 1 -2
BITMAP
FC
42
42
44
7C
46
42
42
46
FC
00
3C
ENDCHAR
STARTCHAR uni1E07
ENCODING 7687
SWIDTH 611 0
DWIDTH 9 0
BBX 8 12 0 -2
BITMAP
C0
40
40
5E
63
41
41
41
42
7C
00
3C
ENDCHAR
STARTCHAR uni1E08
ENCODING 7688
SWIDTH 695 0
DWIDTH 10 0
BBX 8 15 1 -3
BITMAP
1C
00
1F
61
41
80
80
80
80
40
61
3E
08
08
18
ENDCHAR
STARTCHAR uni1E09
ENCODING 7689
SWIDTH 509 0
DWIDTH 7 0
BBX 6 12 1 -3
BITMAP
38
00
3C
44
84
80
80
40
3C
10
10
30
ENDCHAR
STARTCHAR uni1E0A
ENCODING 7690
SWIDTH 768 0
DWIDTH 11 0
BBX 9 12 1 0
BITMAP
0800
0000
FE00
4300
4180
4080
4080
4080
4080
4080
4100
FE00
ENDCHAR
STARTCHAR uni1E0B
ENCODING 7691
SWIDTH 642 0
DWIDTH 9 0
BBX 8 12 1 0
BITMAP
04
00
06
02
02
3E
42
82
82
82
C6
7B
ENDCHAR
STARTCHAR uni1E0C
ENCODING 7692
SWIDTH 768 0
DWIDTH 11 0
BBX 9 12 1 -2
BITMAP
FE00
4300
4180
4080
4080
4080
4080
4080
4100
FE00
0000
0800
ENDCHAR
STARTCHAR uni1E0D
ENCODING 7693
SWIDTH 642 0
DWIDTH 9 0
BBX 8 12 1 -2
BITMAP
06
02
02
3E
42
82
82
82
C6
7B
00
10
ENDCHAR
STARTCHAR uni1E0E
ENCODING 7694
SWIDTH 768 0
DWIDTH 11 0
BBX 9 12 1 -2
BITMAP
FE00
4300
4180
4080
4080
4080
4080
4080
4100
FE00
0000
3C00
ENDCHAR
STARTCHAR uni1E0F
ENCODING 7695
SWIDTH 642 0
DWIDTH 9 0
BBX 8 12 1 -2
BITMAP
06
02
02
3E
42
82
82
82
C6
7B
00
3C
ENDCHAR
STARTCHAR uni1E10
ENCODING 7696
SWIDTH 768 0
DWIDTH 11 0
BBX 9 13 1 -3
BITMAP
FE00
4300
4180
4080
4080
4080
4080
4080
4100
FE00
1800
0800
1800
ENDCHAR
STARTCHAR uni1E11
ENCODING 7697
SWIDTH 642 0
DWIDTH 9 0
BBX 8 13 1 -3
BITMAP
06
02
02
3E
42
82
82
82
C6
7B
18
08
18
ENDCHAR
STARTCHAR uni1E12
ENCODING 7698
SWIDTH 768 0
DWIDTH 11 0
BBX 9 12 1 -2
BITMAP
FE00
4300
4180
4080
4080
4080
4080
4080
4100
FE00
0000
3E00
ENDCHAR
STARTCHAR uni1E13
ENCODING 7699
SWIDTH 642 0
DWIDTH 9 0
BBX 8 12 1 -2
BITMAP
06
02
02
3E
42
82
82
82
C6
7B
00
7C
ENDCHAR
STARTCHAR uni1E14
ENCODING 7700
SWIDTH 566 0
DWIDTH 8 0
BBX 6 14 1 0
BITMAP
38
00
78
00
FC
44
40
48
78
48
40
40
44
FC
ENDCHAR
STARTCHAR uni1E15
ENCODING 7701
SWIDTH 530 0
DWIDTH 7 0
BBX 6 11 1 0
BITMAP
38
00
78
00
78
C4
84
FC
80
44
38
ENDCHAR
STARTCHAR uni1E16
ENCODING 7702
SWIDTH 566 0
DWIDTH 8 0
BBX 6 14 1 0
BITMAP
38
00
78
00
FC
44
40
48
78
48
40
40
44
FC
ENDCHAR
STARTCHAR uni1E17
ENCODING 7703
SWIDTH 530 0
DWIDTH 7 0
BBX 6 11 1 0
BITMAP
38
00
78
00
78
C4
84
FC
80
44
38
ENDCHAR
STARTCHAR uni1E18
ENCODING 7704
SWIDTH 566 0
DWIDTH 8 0
BBX 6 12 1 -2
BITMAP
FC
44
40
48
78
48
40
40
44
FC
00
F8
ENDCHAR
STARTCHAR uni1E19
ENCODING 7705
SWIDTH 530 0
DWIDTH 7 0
BBX 6 9 1 -2
BITMAP
78
C4
84
FC
80
44
38
00
7C
ENDCHAR
STARTCHAR uni1E1A
ENCODING 7706
SWIDTH 566 0
DWIDTH 8 0
BBX 6 12 1 -2
BITMAP
FC
44
40
48
78
48
40
40
44
FC
00
F8
ENDCHAR
STARTCHAR uni1E1B
ENCODING 7707
SWIDTH 530 0
DWIDTH 7 0
BBX 6 9 1 -2
BITMAP
78
C4
84
FC
80
44
38
00
7C
ENDCHAR
STARTCHAR uni1E1C
ENCODING 7708
SWIDTH 566 0
DWIDTH 8 0
BBX 6 15 1 -3
BITMAP
F8
00
FC
44
40
48
78
48
40
40
44
FC
30
10
30
ENDCHAR
STARTCHAR uni1E1D
ENCODING 7709
SWIDTH 530 0
DWIDTH 7 0
BBX 6 12 1 -3
BITMAP
F8
00
78
C4
84
FC
80
44
38
30
10
30
ENDCHAR
STARTCHAR uni1E1E
ENCODING 7710
SWIDTH 548 0
DWIDTH 8 0
BBX 7 12 0 0
BITMAP
10
00
FE
42
40
44
7C
44
40
40
40
F0
ENDCHAR
STARTCHAR uni1E1F
ENCODING 7711
SWIDTH 404 0
DWIDTH 6 0
BBX 5 13 1 0
BITMAP
20
00
38
48
48
40
F0
40
40
40
40
40
F0
ENDCHAR
STARTCHAR uni1E20
ENCODING 7712
SWIDTH 732 0
DWIDTH 10 0
BBX 9 12 1 0
BITMAP
1E00
0000
1F00
6100
4100
8000
8000
8380
8100
4100
6100
3F00
ENDCHAR
STARTCHAR uni1E21
ENCODING 7713
SWIDTH 571 0
DWIDTH 8 0
BBX 8 12 0 -3
BITMAP
3C
00
3F
66
42
62
3C
40
7F
81
81
7E
ENDCHAR
STARTCHAR uni1E22
ENCODING 7714
SWIDTH 771 0
DWIDTH 11 0
BBX 10 12 0 0
BITMAP
0400
0000
E1C0
4080
4080
4080
7F80
4080
4080
4080
4080
E1C0
ENDCHAR
STARTCHAR uni1E23
ENCODING 7715
SWIDTH 633 0
DWIDTH 9 0
BBX 8 12 1 0
BITMAP
20
00
C0
40
40
5C
62
42
42
42
42
E7
ENDCHAR
STARTCHAR uni1E24
ENCODING 7716
SWIDTH 771 0
DWIDTH 11 0
BBX 10 12 0 -2
BITMAP
E1C0
4080
4080
4080
7F80
4080
4080
4080
4080
E1C0
0000
0400
ENDCHAR
STARTCHAR uni1E25
ENCODING 7717
SWIDTH 633 0
DWIDTH 9 0
BBX 8 12 1 -2
BITMAP
C0
40
40
5C
62
42
42
42
42
E7
00
08
ENDCHAR
STARTCHAR uni1E26
ENCODING 7718
SWIDTH 771 0
DWIDTH 11 0
BBX 10 12 0 0
BITMAP
1200
0000
E1C0
4080
4080
4080
7F80
4080
4080
4080
4080
E1C0
ENDCHAR
STARTCHAR uni1E27
ENCODING 7719
SWIDTH 633 0
DWIDTH 9 0
BBX 8 12 1 0
BITMAP
90
00
C0
40
40
5C
62
42
42
42
42
E7
ENDCHAR
STARTCHAR uni1E28
ENCODING 7720
SWIDTH 771 0
DWIDTH 11 0
BBX 10 13 0 -3
BITMAP
E1C0
4080
4080
4080
7F80
4080
4080
4080
4080
E1C0
0C00
0400
0C00
ENDCHAR
STARTCHAR uni1E29
ENCODING 7721
SWIDTH 633 0
DWIDTH 9 0
BBX 8 13 1 -3
BITMAP
C0
40
40
5C
62
42
42
42
42
E7
18
08
18
ENDCHAR
STARTCHAR uni1E2A
ENCODING 7722
SWIDTH 771 0
DWIDTH 11 0
BBX 10 12 0 -2
BITMAP
E1C0
4080
4080
4080
7F80
4080
4080
4080
4080
E1C0
0000
1F00
ENDCHAR
STARTCHAR uni1E2B
ENCODING 7723
SWIDTH 633 0
DWIDTH 9 0
BBX 8 12 1 -2
BITMAP
C0
40
40
5C
62
42
42
42
42
E7
00
3E
ENDCHAR
STARTCHAR uni1E2C
ENCODING 7724
SWIDTH 325 0
DWIDTH 5 0
BBX 5 12 0 -2
BITMAP
70
20
20
20
20
20
20
20
20
70
00
F8
ENDCHAR
STARTCHAR uni1E2D
ENCODING 7725
SWIDTH 307 0
DWIDTH 4 0
BBX 5 12 0 -2
BITMAP
20
00
00
60
20
20
20
20
20
70
00
F8
ENDCHAR
STARTCHAR uni1E2E
ENCODING 7726
SWIDTH 325 0
DWIDTH 5 0
BBX 4 14 2 0
BITMAP
70
00
90
00
70
20
20
20
20
20
20
20
20
70
ENDCHAR
STARTCHAR uni1E2F
ENCODING 7727
SWIDTH 307 0
DWIDTH 4 0
BBX 4 11 2 0
BITMAP
70
00
90
00
60
20
20
20
20
20
70
ENDCHAR
STARTCHAR uni1E30
ENCODING 7728
SWIDTH 708 0
DWIDTH 10 0
BBX 10 12 0 0
BITMAP
1C00
0000
E780
4300
4400
5800
7000
5000
4C00
4600
4300
E7C0
ENDCHAR
STARTCHAR uni1E31
ENCODING 7729
SWIDTH 599 0
DWIDTH 8 0
BBX 8 12 0 0
BITMAP
70
00
C0
40
40
4E
4C
58
60
58
4C
E7
ENDCHAR
STARTCHAR uni1E32
ENCODING 7730
SWIDTH 708 0
DWIDTH 10 0
BBX 10 12 0 -2
BITMAP
E780
4300
4400
5800
7000
5000
4C00
4600
4300
E7C0
0000
0400
ENDCHAR
STARTCHAR uni1E33
ENCODING 7731
SWIDTH 599 0
DWIDTH 8 0
BBX 8 12 0 -2
BITMAP
C0
40
40
4E
4C
58
60
58
4C
E7
00
10
ENDCHAR
STARTCHAR uni1E34
ENCODING 7732
SWIDTH 708 0
DWIDTH 10 0
BBX 10 12 0 -2
BITMAP
E780
4300
4400
5800
7000
5000
4C00
4600
4300
E7C0
0000
1E00
ENDCHAR
STARTCHAR uni1E35
ENCODING 7733
SWIDTH 599 0
DWIDTH 8 0
BBX 8 12 0 -2
BITMAP
C0
40
40
4E
4C
58
60
58
4C
E7
00
3C
ENDCHAR
STARTCHAR uni1E36
ENCODING 7734
SWIDTH 557 0
DWIDTH 8 0
BBX 7 12 0 -2
BITMAP
E0
40
40
40
40
40
40
40
42
FE
00
10
ENDCHAR
STARTCHAR uni1E37
ENCODING 7735
SWIDTH 313 0
DWIDTH 4 0
BBX 3 12 1 -2
BITMAP
C0
40
40
40
40
40
40
40
40
E0
00
40
ENDCHAR
STARTCHAR uni1E38
ENCODING 7736
SWIDTH 557 0
DWIDTH 8 0
BBX 7 14 0 -2
BITMAP
F0
00
E0
40
40
40
40
40
40
40
42
FE
00
10
ENDCHAR
STARTCHAR uni1E39
ENCODING 7737
SWIDTH 313 0
DWIDTH 4 0
BBX 4 14 0 -2
BITMAP
F0
00
60
20
20
20
20
20
20
20
20
70
00
20
ENDCHAR
STARTCHAR uni1E3A
ENCODING 7738
SWIDTH 557 0
DWIDTH 8 0
BBX 7 12 0 -2
BITMAP
E0
40
40
40
40
40
40
40
42
FE
00
78
ENDCHAR
STARTCHAR uni1E3B
ENCODING 7739
SWIDTH 313 0
DWIDTH 4 0
BBX 4 12 1 -2
BITMAP
C0
40
40
40
40
40
40
40
40
E0
00
F0
ENDCHAR
STARTCHAR uni1E3C
ENCODING 7740
SWIDTH 557 0
DWIDTH 8 0
BBX 7 12 0 -2
BITMAP
E0
40
40
40
40
40
40
40
42
FE
00
7C
ENDCHAR
STARTCHAR uni1E3D
ENCODING 7741
SWIDTH 313 0
DWIDTH 4 0
BBX 5 12 0 -2
BITMAP
60
20
20
20
20
20
20
20
20
70
00
F8
ENDCHAR
STARTCHAR uni1E3E
ENCODING 7742
SWIDTH 860 0
DWIDTH 12 0
BBX 11 12 1 0
BITMAP
0E00
0000
E0E0
60C0
51C0
5140
5940
4A40
4A40
4440
4440
E0E0
ENDCHAR
STARTCHAR uni1E3F
ENCODING 7743
SWIDTH 946 0
DWIDTH 13 0
BBX 13 9 0 0
BITMAP
0E00
0000
DCE0
6310
4210
4210
4210
4210
E738
ENDCHAR
STARTCHAR uni1E40
ENCODING 7744
SWIDTH 860 0
DWIDTH 12 0
BBX 11 12 1 0
BITMAP
0400
0000
E0E0
60C0
51C0
5140
5940
4A40
4A40
4440
4440
E0E0
ENDCHAR
STARTCHAR uni1E41
ENCODING 7745
SWIDTH 946 0
DWIDTH 13 0
BBX 13 9 0 0
BITMAP
0400
0000
DCE0
6310
4210
4210
4210
4210
E738
ENDCHAR
STARTCHAR uni1E42
ENCODING 7746
SWIDTH 860 0
DWIDTH 12 0
BBX 11 12 1 -2
BITMAP
E0E0
60C0
51C0
5140
5940
4A40
4A40
4440
4440
E0E0
0000
0400
ENDCHAR
STARTCHAR uni1E43
ENCODING 7747
SWIDTH 946 0
DWIDTH 13 0
BBX 13 9 0 -2
BITMAP
DCE0
6310
4210
4210
4210
4210
E738
0000
0200
ENDCHAR
STARTCHAR uni1E44
ENCODING 7748
SWIDTH 751 0
DWIDTH 11 0
BBX 9 12 1 0
BITMAP
0800
0000
C380
6100
7100
5100
4900
4D00
4500
4300
4100
E100
ENDCHAR
STARTCHAR uni1E45
ENCODING 7749
SWIDTH 633 0
DWIDTH 9 0
BBX 8 9 1 0
BITMAP
10
00
DC
62
42
42
42
42
E7
ENDCHAR
STARTCHAR uni1E46
ENCODING 7750
SWIDTH 751 0
DWIDTH 11 0
BBX 9 12 1 -2
BITMAP
C380
6100
7100
5100
4900
4D00
4500
4300
4100
E100
0000
0800
ENDCHAR
STARTCHAR uni1E47
ENCODING 7751
SWIDTH 633 0
DWIDTH 9 0
BBX 8 9 1 -2
BITMAP
DC
62
42
42
42
42
E7
00
08
ENDCHAR
STARTCHAR uni1E48
ENCODING 7752
SWIDTH 751 0
DWIDTH 11 0
BBX 9 12 1 -2
BITMAP
C380
6100
7100
5100
4900
4D00
4500
4300
4100
E100
0000
3C00
ENDCHAR
STARTCHAR uni1E49
ENCODING 7753
SWIDTH 633 0
DWIDTH 9 0
BBX 8 9 1 -2
BITMAP
DC
62
42
42
42
42
E7
00
3C
ENDCHAR
STARTCHAR uni1E4A
ENCODING 7754
SWIDTH 751 0
DWIDTH 11 0
BBX 9 12 1 -2
BITMAP
C380
6100
7100
5100
4900
4D00
4500
4300
4100
E100
0000
3E00
ENDCHAR
STARTCHAR uni1E4B
ENCODING 7755
SWIDTH 633 0
DWIDTH 9 0
BBX 8 9 1 -2
BITMAP
DC
62
42
42
42
42
E7
00
3E
ENDCHAR
STARTCHAR uni1E4C
ENCODING 7756
SWIDTH 777 0
DWIDTH 11 0
BBX 9 14 1 0
BITMAP
1C00
0000
3E00
0000
3E00
6300
4100
8080
8080
8080
8080
4100
6300
3E00
ENDCHAR
STARTCHAR uni1E4D
ENCODING 7757
SWIDTH 602 0
DWIDTH 8 0
BBX 7 11 1 0
BITMAP
38
00
7C
00
38
44
82
82
82
44
38
ENDCHAR
STARTCHAR uni1E4E
ENCODING 7758
SWIDTH 777 0
DWIDTH 11 0
BBX 9 14 1 0
BITMAP
1200
0000
3E00
0000
3E00
6300
4100
8080
8080
8080
8080
4100
6300
3E00
ENDCHAR
STARTCHAR uni1E4F
ENCODING 7759
SWIDTH 602 0
DWIDTH 8 0
BBX 7 11 1 0
BITMAP
24
00
7C
00
38
44
82
82
82
44
38
ENDCHAR
STARTCHAR uni1E50
ENCODING 7760
SWIDTH 777 0
DWIDTH 11 0
BBX 9 14 1 0
BITMAP
1C00
0000
1E00
0000
3E00
6300
4100
8080
8080
8080
8080
4100
6300
3E00
ENDCHAR
STARTCHAR uni1E51
ENCODING 7761
SWIDTH 602 0
DWIDTH 8 0
BBX 7 11 1 0
BITMAP
38
00
3C
00
38
44
82
82
82
44
38
ENDCHAR
STARTCHAR uni1E52
ENCODING 7762
SWIDTH 777 0
DWIDTH 11 0
BBX 9 14 1 0
BITMAP
1C00
0000
1E00
0000
3E00
6300
4100
8080
8080
8080
8080
4100
6300
3E00
ENDCHAR
STARTCHAR uni1E53
ENCODING 7763
SWIDTH 602 0
DWIDTH 8 0
BBX 7 11 1 0
BITMAP
38
00
3C
00
38
44
82
82
82
44
38
ENDCHAR
STARTCHAR uni1E54
ENCODING 7764
SWIDTH 573 0
DWIDTH 8 0
BBX 7 12 1 0
BITMAP
38
00
FC
42
42
42
46
7C
40
40
40
E0
ENDCHAR
STARTCHAR uni1E55
ENCODING 7765
SWIDTH 642 0
DWIDTH 9 0
BBX 8 12 0 -3
BITMAP
1C
00
DE
63
41
41
41
42
7C
40
40
E0
ENDCHAR
STARTCHAR uni1E56
ENCODING 7766
SWIDTH 573 0
DWIDTH 8 0
BBX 7 12 1 0
BITMAP
10
00
FC
42
42
42
46
7C
40
40
40
E0
ENDCHAR
STARTCHAR uni1E57
ENCODING 7767
SWIDTH 642 0
DWIDTH 9 0
BBX 8 12 0 -3
BITMAP
08
00
DE
63
41
41
41
42
7C
40
40
E0
ENDCHAR
STARTCHAR uni1E58
ENCODING 7768
SWIDTH 679 0
DWIDTH 9 0
BBX 9 12 0 0
BITMAP
1000
0000
FC00
4200
4200
4200
4400
7800
4C00
4400
4200
E180
ENDCHAR
STARTCHAR uni1E59
ENCODING 7769
SWIDTH 440 0
DWIDTH 6 0
BBX 5 9 0 0
BITMAP
20
00
F8
48
48
40
40
40
E0
ENDCHAR
STARTCHAR uni1E5A
ENCODING 7770
SWIDTH 679 0
DWIDTH 9 0
BBX 9 12 0 -2
BITMAP
FC00
4200
4200
4200
4400
7800
4C00
4400
4200
E180
0000
0800
ENDCHAR
STARTCHAR uni1E5B
ENCODING 7771
SWIDTH 440 0
DWIDTH 6 0
BBX 5 9 0 -2
BITMAP
F8
48
48
40
40
40
E0
00
40
ENDCHAR
STARTCHAR uni1E5C
ENCODING 7772
SWIDTH 679 0
DWIDTH 9 0
BBX 9 14 0 -2
BITMAP
3C00
0000
FC00
4200
4200
4200
4400
7800
4C00
4400
4200
E180
0000
0800
ENDCHAR
STARTCHAR uni1E5D
ENCODING 7773
SWIDTH 440 0
DWIDTH 6 0
BBX 5 11 0 -2
BITMAP
78
00
F8
48
48
40
40
40
E0
00
40
ENDCHAR
STARTCHAR uni1E5E
ENCODING 7774
SWIDTH 679 0
DWIDTH 9 0
BBX 9 12 0 -2
BITMAP
FC00
4200
4200
4200
4400
7800
4C00
4400
4200
E180
0000
3C00
ENDCHAR
STARTCHAR uni1E5F
ENCODING 7775
SWIDTH 440 0
DWIDTH 6 0
BBX 5 9 0 -2
BITMAP
F8
48
48
40
40
40
E0
00
F0
ENDCHAR
STARTCHAR uni1E60
ENCODING 7776
SWIDTH 542 0
DWIDTH 8 0
BBX 6 12 1 0
BITMAP
10
00
7C
84
84
C0
60
18
04
84
8C
F8
ENDCHAR
STARTCHAR uni1E61
ENCODING 7777
SWIDTH 504 0
DWIDTH 7 0
BBX 5 9 1 0
BITMAP
20
00
78
88
88
70
88
88
F0
ENDCHAR
STARTCHAR uni1E62
ENCODING 7778
SWIDTH 542 0
DWIDTH 8 0
BBX 6 12 1 -2
BITMAP
7C
84
84
C0
60
18
04
84
8C
F8
00
20
ENDCHAR
STARTCHAR uni1E63
ENCODING 7779
SWIDTH 504 0
DWIDTH 7 0
BBX 5 9 1 -2
BITMAP
78
88
88
70
88
88
F0
00
20
ENDCHAR
STARTCHAR uni1E64
ENCODING 7780
SWIDTH 542 0
DWIDTH 8 0
BBX 6 14 1 0
BITMAP
10
00
38
00
7C
84
84
C0
60
18
04
84
8C
F8
ENDCHAR
STARTCHAR uni1E65
ENCODING 7781
SWIDTH 504 0
DWIDTH 7 0
BBX 5 11 1 0
BITMAP
20
00
70
00
78
88
88
70
88
88
F0
ENDCHAR
STARTCHAR uni1E66
ENCODING 7782
SWIDTH 542 0
DWIDTH 8 0
BBX 6 14 1 0
BITMAP
10
00
F8
00
7C
84
84
C0
60
18
04
84
8C
F8
ENDCHAR
STARTCHAR uni1E67
ENCODING 7783
SWIDTH 504 0
DWIDTH 7 0
BBX 5 11 1 0
BITMAP
20
00
F8
00
78
88
88
70
88
88
F0
ENDCHAR
STARTCHAR uni1E68
ENCODING 7784
SWIDTH 542 0
DWIDTH 8 0
BBX 6 14 1 -2
BITMAP
20
00
7C
84
84
C0
60
18
04
84
8C
F8
00
20
ENDCHAR
STARTCHAR uni1E69
ENCODING 7785
SWIDTH 504 0
DWIDTH 7 0
BBX 5 11 1 -2
BITMAP
20
00
78
88
88
70
88
88
F0
00
20
ENDCHAR
STARTCHAR uni1E6A
ENCODING 7786
SWIDTH 663 0
DWIDTH 9 0
BBX 9 12 0 0
BITMAP
0800
0000
FF80
0800
0800
0800
0800
0800
0800
0800
0800
1C00
ENDCHAR
STARTCHAR uni1E6B
ENCODING 7787
SWIDTH 392 0
DWIDTH 5 0
BBX 4 11 1 0
BITMAP
40
00
40
40
F0
40
40
40
40
40
70
ENDCHAR
STARTCHAR uni1E6C
ENCODING 7788
SWIDTH 663 0
DWIDTH 9 0
BBX 9 12 0 -2
BITMAP
FF80
0800
0800
0800
0800
0800
0800
0800
0800
1C00
0000
0800
ENDCHAR
STARTCHAR uni1E6D
ENCODING 7789
SWIDTH 392 0
DWIDTH 5 0
BBX 4 11 1 -2
BITMAP
40
40
F0
40
40
40
40
40
70
00
20
ENDCHAR
STARTCHAR uni1E6E
ENCODING 7790
SWIDTH 663 0
DWIDTH 9 0
BBX 9 12 0 -2
BITMAP
FF80
0800
0800
0800
0800
0800
0800
0800
0800
1C00
0000
1E00
ENDCHAR
STARTCHAR uni1E6F
ENCODING 7791
SWIDTH 392 0
DWIDTH 5 0
BBX 4 11 1 -2
BITMAP
40
40
F0
40
40
40
40
40
70
00
F0
ENDCHAR
STARTCHAR uni1E70
ENCODING 7792
SWIDTH 663 0
DWIDTH 9 0
BBX 9 12 0 -2
BITMAP
FF80
0800
0800
0800
0800
0800
0800
0800
0800
1C00
0000
3E00
ENDCHAR
STARTCHAR uni1E71
ENCODING 7793
SWIDTH 392 0
DWIDTH 5 0
BBX 5 11 1 -2
BITMAP
40
40
F0
40
40
40
40
40
70
00
F8
ENDCHAR
STARTCHAR uni1E72
ENCODING 7794
SWIDTH 719 0
DWIDTH 10 0
BBX 9 12 1 -2
BITMAP
E380
4100
4100
4100
4100
4100
4100
4100
6300
3E00
0000
1200
ENDCHAR
STARTCHAR uni1E73
ENCODING 7795
SWIDTH 633 0
DWIDTH 9 0
BBX 8 9 0 -2
BITMAP
C6
42
42
42
42
46
3B
00
12
ENDCHAR
STARTCHAR uni1E74
ENCODING 7796
SWIDTH 719 0
DWIDTH 10 0
BBX 9 12 1 -2
BITMAP
E380
4100
4100
4100
4100
4100
4100
4100
6300
3E00
0000
3E00
ENDCHAR
STARTCHAR uni1E75
ENCODING 7797
SWIDTH 633 0
DWIDTH 9 0
BBX 8 9 0 -2
BITMAP
C6
42
42
42
42
46
3B
00
3E
ENDCHAR
STARTCHAR uni1E76
ENCODING 7798
SWIDTH 719 0
DWIDTH 10 0
BBX 9 12 1 -2
BITMAP
E380
4100
4100
4100
4100
4100
4100
4100
6300
3E00
0000
3E00
ENDCHAR
STARTCHAR uni1E77
ENCODING 7799
SWIDTH 633 0
DWIDTH 9 0
BBX 8 9 0 -2
BITMAP
C6
42
42
42
42
46
3B
00
3E
ENDCHAR
STARTCHAR uni1E78
ENCODING 7800
SWIDTH 719 0
DWIDTH 10 0
BBX 9 14 1 0
BITMAP
1C00
0000
3E00
0000
E380
4100
4100
4100
4100
4100
4100
4100
6300
3E00
ENDCHAR
STARTCHAR uni1E79
ENCODING 7801
SWIDTH 633 0
DWIDTH 9 0
BBX 8 11 0 0
BITMAP
38
00
7C
00
C6
42
42
42
42
46
3B
ENDCHAR
STARTCHAR uni1E7A
ENCODING 7802
SWIDTH 719 0
DWIDTH 10 0
BBX 9 14 1 0
BITMAP
1200
0000
1E00
0000
E380
4100
4100
4100
4100
4100
4100
4100
6300
3E00
ENDCHAR
STARTCHAR uni1E7B
ENCODING 7803
SWIDTH 633 0
DWIDTH 9 0
BBX 8 11 0 0
BITMAP
24
00
3C
00
C6
42
42
42
42
46
3B
ENDCHAR
STARTCHAR uni1E7C
ENCODING 7804
SWIDTH 699 0
DWIDTH 10 0
BBX 10 12 0 0
BITMAP
3E00
0000
F1C0
6080
2080
2100
1100
1300
0A00
0A00
0C00
0400
ENDCHAR
STARTCHAR uni1E7D
ENCODING 7805
SWIDTH 545 0
DWIDTH 8 0
BBX 8 9 0 0
BITMAP
3E
00
E3
43
22
24
14
18
08
ENDCHAR
STARTCHAR uni1E7E
ENCODING 7806
SWIDTH 699 0
DWIDTH 10 0
BBX 10 12 0 -2
BITMAP
F1C0
6080
2080
2100
1100
1300
0A00
0A00
0C00
0400
0000
0400
ENDCHAR
STARTCHAR uni1E7F
ENCODING 7807
SWIDTH 545 0
DWIDTH 8 0
BBX 8 9 0 -2
BITMAP
E3
43
22
24
14
18
08
00
08
ENDCHAR
STARTCHAR Wgrave
ENCODING 7808
SWIDTH 925 0
DWIDTH 13 0
BBX 13 12 0 0
BITMAP
0700
0000
F238
4210
2710
2520
2520
2520
18C0
18C0
18C0
1040
ENDCHAR
STARTCHAR wgrave
ENCODING 7809
SWIDTH 795 0
DWIDTH 11 0
BBX 11 9 0 0
BITMAP
0E00
0000
E460
4460
4E40
2A40
2980
3180
1100
ENDCHAR
STARTCHAR Wacute
ENCODING 7810
SWIDTH 925 0
DWIDTH 13 0
BBX 13 12 0 0
BITMAP
0700
0000
F238
4210
2710
2520
2520
2520
18C0
18C0
18C0
1040
ENDCHAR
STARTCHAR wacute
ENCODING 7811
SWIDTH 795 0
DWIDTH 11 0
BBX 11 9 0 0
BITMAP
0E00
0000
E460
4460
4E40
2A40
2980
3180
1100
ENDCHAR
STARTCHAR Wdieresis
ENCODING 7812
SWIDTH 925 0
DWIDTH 13 0
BBX 13 12 0 0
BITMAP
0900
0000
F238
4210
2710
2520
2520
2520
18C0
18C0
18C0
1040
ENDCHAR
STARTCHAR wdieresis
ENCODING 7813
SWIDTH 795 0
DWIDTH 11 0
BBX 11 9 0 0
BITMAP
0900
0000
E460
4460
4E40
2A40
2980
3180
1100
ENDCHAR
STARTCHAR uni1E86
ENCODING 7814
SWIDTH 925 0
DWIDTH 13 0
BBX 13 12 0 0
BITMAP
0200
0000
F238
4210
2710
2520
2520
2520
18C0
18C0
18C0
1040
ENDCHAR
STARTCHAR uni1E87
ENCODING 7815
SWIDTH 795 0
DWIDTH 11 0
BBX 11 9 0 0
BITMAP
0400
0000
E460
4460
4E40
2A40
2980
3180
1100
ENDCHAR
STARTCHAR uni1E88
ENCODING 7816
SWIDTH 925 0
DWIDTH 13 0
BBX 13 12 0 -2
BITMAP
F238
4210
2710
2520
2520
2520
18C0
18C0
18C0
1040
0000
0200
ENDCHAR
STARTCHAR uni1E89
ENCODING 7817
SWIDTH 795 0
DWIDTH 11 0
BBX 11 9 0 -2
BITMAP
E460
4460
4E40
2A40
2980
3180
1100
0000
0400
ENDCHAR
STARTCHAR uni1E8A
ENCODING 7818
SWIDTH 657 0
DWIDTH 9 0
BBX 9 12 0 0
BITMAP
0800
0000
F380
2100
2200
1400
0C00
1C00
3400
2200
4300
E780
ENDCHAR
STARTCHAR uni1E8B
ENCODING 7819
SWIDTH 557 0
DWIDTH 8 0
BBX 8 9 0 0
BITMAP
10
00
E7
62
34
18
2C
46
E7
ENDCHAR
STARTCHAR uni1E8C
ENCODING 7820
SWIDTH 657 0
DWIDTH 9 0
BBX 9 12 0 0
BITMAP
1200
0000
F380
2100
2200
1400
0C00
1C00
3400
2200
4300
E780
ENDCHAR
STARTCHAR uni1E8D
ENCODING 7821
SWIDTH 557 0
DWIDTH 8 0
BBX 8 9 0 0
BITMAP
24
00
E7
62
34
18
2C
46
E7
ENDCHAR
STARTCHAR uni1E8E
ENCODING 7822
SWIDTH 678 0
DWIDTH 9 0
BBX 9 12 0 0
BITMAP
0800
0000
F380
6100
2300
1200
0C00
0800
0800
0800
0800
1C00
ENDCHAR
STARTCHAR uni1E8F
ENCODING 7823
SWIDTH 551 0
DWIDTH 8 0
BBX 8 12 0 -3
BITMAP
08
00
F3
43
22
26
14
1C
18
08
10
70
ENDCHAR
STARTCHAR uni1E90
ENCODING 7824
SWIDTH 633 0
DWIDTH 9 0
BBX 7 12 1 0
BITMAP
7C
00
FE
84
0C
08
10
10
20
40
42
FE
ENDCHAR
STARTCHAR uni1E91
ENCODING 7825
SWIDTH 595 0
DWIDTH 8 0
BBX 6 9 1 0
BITMAP
F8
00
FC
88
10
20
20
44
FC
ENDCHAR
STARTCHAR uni1E92
ENCODING 7826
SWIDTH 633 0
DWIDTH 9 0
BBX 7 12 1 -2
BITMAP
FE
84
0C
08
10
10
20
40
42
FE
00
10
ENDCHAR
STARTCHAR uni1E93
ENCODING 7827
SWIDTH 595 0
DWIDTH 8 0
BBX 6 9 1 -2
BITMAP
FC
88
10
20
20
44
FC
00
10
ENDCHAR
STARTCHAR uni1E94
ENCODING 7828
SWIDTH 633 0
DWIDTH 9 0
BBX 7 12 1 -2
BITMAP
FE
84
0C
08
10
10
20
40
42
FE
00
78
ENDCHAR
STARTCHAR uni1E95
ENCODING 7829
SWIDTH 595 0
DWIDTH 8 0
BBX 6 9 1 -2
BITMAP
FC
88
10
20
20
44
FC
00
78
ENDCHAR
STARTCHAR uni1E96
ENCODING 7830
SWIDTH 633 0
DWIDTH 9 0
BBX 8 12 1 -2
BITMAP
C0
40
40
5C
62
42
42
42
42
E7
00
3C
ENDCHAR
STARTCHAR uni1E97
ENCODING 7831
SWIDTH 392 0
DWIDTH 5 0
BBX 4 11 1 0
BITMAP
90
00
40
40
F0
40
40
40
40
40
70
ENDCHAR
STARTCHAR uni1E98
ENCODING 7832
SWIDTH 795 0
DWIDTH 11 0
BBX 11 11 0 0
BITMAP
0600
0900
0600
0000
E460
4460
4E40
2A40
2980
3180
1100
ENDCHAR
STARTCHAR uni1E99
ENCODING 7833
SWIDTH 551 0
DWIDTH 8 0
BBX 8 14 0 -3
BITMAP
18
24
18
00
F3
43
22
26
14
1C
18
08
10
70
ENDCHAR
STARTCHAR uni1EA0
ENCODING 7840
SWIDTH 744 0
DWIDTH 10 0
BBX 10 12 0 -2
BITMAP
0800
0C00
1C00
1400
1200
2200
3F00
4100
4180
E3C0
0000
0400
ENDCHAR
STARTCHAR uni1EA1
ENCODING 7841
SWIDTH 543 0
DWIDTH 8 0
BBX 7 9 0 -2
BITMAP
78
84
04
7C
84
84
7E
00
10
ENDCHAR
STARTCHAR uni1EA4
ENCODING 7844
SWIDTH 744 0
DWIDTH 10 0
BBX 10 14 0 0
BITMAP
1C00
0000
3E00
0000
0800
0C00
1C00
1400
1200
2200
3F00
4100
4180
E3C0
ENDCHAR
STARTCHAR uni1EA5
ENCODING 7845
SWIDTH 543 0
DWIDTH 8 0
BBX 7 11 0 0
BITMAP
38
00
7C
00
78
84
04
7C
84
84
7E
ENDCHAR
STARTCHAR uni1EA6
ENCODING 7846
SWIDTH 744 0
DWIDTH 10 0
BBX 10 14 0 0
BITMAP
1C00
0000
3E00
0000
0800
0C00
1C00
1400
1200
2200
3F00
4100
4180
E3C0
ENDCHAR
STARTCHAR uni1EA7
ENCODING 7847
SWIDTH 543 0
DWIDTH 8 0
BBX 7 11 0 0
BITMAP
38
00
7C
00
78
84
04
7C
84
84
7E
ENDCHAR
STARTCHAR uni1EAA
ENCODING 7850
SWIDTH 744 0
DWIDTH 10 0
BBX 10 14 0 0
BITMAP
3E00
0000
3E00
0000
0800
0C00
1C00
1400
1200
2200
3F00
4100
4180
E3C0
ENDCHAR
STARTCHAR uni1EAB
ENCODING 7851
SWIDTH 543 0
DWIDTH 8 0
BBX 7 11 0 0
BITMAP
7C
00
7C
00
78
84
04
7C
84
84
7E
ENDCHAR
STARTCHAR uni1EAC
ENCODING 7852
SWIDTH 744 0
DWIDTH 10 0
BBX 10 14 0 -2
BITMAP
3E00
0000
0800
0C00
1C00
1400
1200
2200
3F00
4100
4180
E3C0
0000
0400
ENDCHAR
STARTCHAR uni1EAD
ENCODING 7853
SWIDTH 543 0
DWIDTH 8 0
BBX 7 11 0 -2
BITMAP
7C
00
78
84
04
7C
84
84
7E
00
10
ENDCHAR
STARTCHAR uni1EAE
ENCODING 7854
SWIDTH 744 0
DWIDTH 10 0
BBX 10 14 0 0
BITMAP
1C00
0000
3E00
0000
0800
0C00
1C00
1400
1200
2200
3F00
4100
4180
E3C0
ENDCHAR
STARTCHAR uni1EAF
ENCODING 7855
SWIDTH 543 0
DWIDTH 8 0
BBX 7 11 0 0
BITMAP
38
00
7C
00
78
84
04
7C
84
84
7E
ENDCHAR
STARTCHAR uni1EB0
ENCODING 7856
SWIDTH 744 0
DWIDTH 10 0
BBX 10 14 0 0
BITMAP
1C00
0000
3E00
0000
0800
0C00
1C00
1400
1200
2200
3F00
4100
4180
E3C0
ENDCHAR
STARTCHAR uni1EB1
ENCODING 7857
SWIDTH 543 0
DWIDTH 8 0
BBX 7 11 0 0
BITMAP
38
00
7C
00
78
84
04
7C
84
84
7E
ENDCHAR
STARTCHAR uni1EB4
ENCODING 7860
SWIDTH 744 0
DWIDTH 10 0
BBX 10 14 0 0
BITMAP
3E00
0000
3E00
0000
0800
0C00
1C00
1400
1200
2200
3F00
4100
4180
E3C0
ENDCHAR
STARTCHAR uni1EB5
ENCODING 7861
SWIDTH 543 0
DWIDTH 8 0
BBX 7 11 0 0
BITMAP
7C
00
7C
00
78
84
04
7C
84
84
7E
ENDCHAR
STARTCHAR uni1EB6
ENCODING 7862
SWIDTH 744 0
DWIDTH 10 0
BBX 10 14 0 -2
BITMAP
3E00
0000
0800
0C00
1C00
1400
1200
2200
3F00
4100
4180
E3C0
0000
0400
ENDCHAR
STARTCHAR uni1EB7
ENCODING 7863
SWIDTH 543 0
DWIDTH 8 0
BBX 7 11 0 -2
BITMAP
7C
00
78
84
04
7C
84
84
7E
00
10
ENDCHAR
STARTCHAR uni1EB8
ENCODING 7864
SWIDTH 566 0
DWIDTH 8 0
BBX 6 12 1 -2
BITMAP
FC
44
40
48
78
48
40
40
44
FC
00
20
ENDCHAR
STARTCHAR uni1EB9
ENCODING 7865
SWIDTH 530 0
DWIDTH 7 0
BBX 6 9 1 -2
BITMAP
78
C4
84
FC
80
44
38
00
10
ENDCHAR
STARTCHAR uni1EBC
ENCODING 7868
SWIDTH 566 0
DWIDTH 8 0
BBX 6 12 1 0
BITMAP
F8
00
FC
44
40
48
78
48
40
40
44
FC
ENDCHAR
STARTCHAR uni1EBD
ENCODING 7869
SWIDTH 530 0
DWIDTH 7 0
BBX 6 9 1 0
BITMAP
F8
00
78
C4
84
FC
80
44
38
ENDCHAR
STARTCHAR uni1EBE
ENCODING 7870
SWIDTH 566 0
DWIDTH 8 0
BBX 6 14 1 0
BITMAP
38
00
7C
00
FC
44
40
48
78
48
40
40
44
FC
ENDCHAR
STARTCHAR uni1EBF
ENCODING 7871
SWIDTH 530 0
DWIDTH 7 0
BBX 6 11 1 0
BITMAP
38
00
7C
00
78
C4
84
FC
80
44
38
ENDCHAR
STARTCHAR uni1EC0
ENCODING 7872
SWIDTH 566 0
DWIDTH 8 0
BBX 6 14 1 0
BITMAP
38
00
7C
00
FC
44
40
48
78
48
40
40
44
FC
ENDCHAR
STARTCHAR uni1EC1
ENCODING 7873
SWIDTH 530 0
DWIDTH 7 0
BBX 6 11 1 0
BITMAP
38
00
7C
00
78
C4
84
FC
80
44
38
ENDCHAR
STARTCHAR uni1EC4
ENCODING 7876
SWIDTH 566 0
DWIDTH 8 0
BBX 6 14 1 0
BITMAP
7C
00
7C
00
FC
44
40
48
78
48
40
40
44
FC
ENDCHAR
STARTCHAR uni1EC5
ENCODING 7877
SWIDTH 530 0
DWIDTH 7 0
BBX 6 11 1 0
BITMAP
7C
00
7C
00
78
C4
84
FC
80
44
38
ENDCHAR
STARTCHAR uni1EC6
ENCODING 7878
SWIDTH 566 0
DWIDTH 8 0
BBX 6 14 1 -2
BITMAP
F8
00
FC
44
40
48
78
48
40
40
44
FC
00
20
ENDCHAR
STARTCHAR uni1EC7
ENCODING 7879
SWIDTH 530 0
DWIDTH 7 0
BBX 6 11 1 -2
BITMAP
F8
00
78
C4
84
FC
80
44
38
00
10
ENDCHAR
STARTCHAR uni1ECA
ENCODING 7882
SWIDTH 325 0
DWIDTH 5 0
BBX 3 12 1 -2
BITMAP
E0
40
40
40
40
40
40
40
40
E0
00
40
ENDCHAR
STARTCHAR uni1ECB
ENCODING 7883
SWIDTH 307 0
DWIDTH 4 0
BBX 3 12 1 -2
BITMAP
40
00
00
C0
40
40
40
40
40
E0
00
40
ENDCHAR
STARTCHAR uni1ECC
ENCODING 7884
SWIDTH 777 0
DWIDTH 11 0
BBX 9 12 1 -2
BITMAP
3E00
6300
4100
8080
8080
8080
8080
4100
6300
3E00
0000
0800
ENDCHAR
STARTCHAR uni1ECD
ENCODING 7885
SWIDTH 602 0
DWIDTH 8 0
BBX 7 9 1 -2
BITMAP
38
44
82
82
82
44
38
00
10
ENDCHAR
STARTCHAR uni1ED0
ENCODING 7888
SWIDTH 777 0
DWIDTH 11 0
BBX 9 14 1 0
BITMAP
1C00
0000
3E00
0000
3E00
6300
4100
8080
8080
8080
8080
4100
6300
3E00
ENDCHAR
STARTCHAR uni1ED1
ENCODING 7889
SWIDTH 602 0
DWIDTH 8 0
BBX 7 11 1 0
BITMAP
38
00
7C
00
38
44
82
82
82
44
38
ENDCHAR
STARTCHAR uni1ED2
ENCODING 7890
SWIDTH 777 0
DWIDTH 11 0
BBX 9 14 1 0
BITMAP
1C00
0000
3E00
0000
3E00
6300
4100
8080
8080
8080
8080
4100
6300
3E00
ENDCHAR
STARTCHAR uni1ED3
ENCODING 7891
SWIDTH 602 0
DWIDTH 8 0
BBX 7 11 1 0
BITMAP
38
00
7C
00
38
44
82
82
82
44
38
ENDCHAR
STARTCHAR uni1ED6
ENCODING 7894
SWIDTH 777 0
DWIDTH 11 0
BBX 9 14 1 0
BITMAP
3E00
0000
3E00
0000
3E00
6300
4100
8080
8080
8080
8080
4100
6300
3E00
ENDCHAR
STARTCHAR uni1ED7
ENCODING 7895
SWIDTH 602 0
DWIDTH 8 0
BBX 7 11 1 0
BITMAP
7C
00
7C
00
38
44
82
82
82
44
38
ENDCHAR
STARTCHAR uni1ED8
ENCODING 7896
SWIDTH 777 0
DWIDTH 11 0
BBX 9 14 1 -2
BITMAP
3E00
0000
3E00
6300
4100
8080
8080
8080
8080
4100
6300
3E00
0000
0800
ENDCHAR
STARTCHAR uni1ED9
ENCODING 7897
SWIDTH 602 0
DWIDTH 8 0
BBX 7 11 1 -2
BITMAP
7C
00
38
44
82
82
82
44
38
00
10
ENDCHAR
STARTCHAR uni1EDA
ENCODING 7898
SWIDTH 777 0
DWIDTH 11 0
BBX 10 12 1 0
BITMAP
0E00
0000
3EC0
6340
41C0
8080
8080
8080
8080
4100
6300
3E00
ENDCHAR
STARTCHAR uni1EDB
ENCODING 7899
SWIDTH 602 0
DWIDTH 8 0
BBX 9 9 1 0
BITMAP
0E00
0000
3980
4480
8380
8200
8200
4400
3800
ENDCHAR
STARTCHAR uni1EDC
ENCODING 7900
SWIDTH 777 0
DWIDTH 11 0
BBX 10 12 1 0
BITMAP
0E00
0000
3EC0
6340
41C0
8080
8080
8080
8080
4100
6300
3E00
ENDCHAR
STARTCHAR uni1EDD
ENCODING 7901
SWIDTH 602 0
DWIDTH 8 0
BBX 9 9 1 0
BITMAP
0E00
0000
3980
4480
8380
8200
8200
4400
3800
ENDCHAR
STARTCHAR uni1EE0
ENCODING 7904
SWIDTH 777 0
DWIDTH 11 0
BBX 10 12 1 0
BITMAP
1F00
0000
3EC0
6340
41C0
8080
8080
8080
8080
4100
6300
3E00
ENDCHAR
STARTCHAR uni1EE1
ENCODING 7905
SWIDTH 602 0
DWIDTH 8 0
BBX 9 9 1 0
BITMAP
1F00
0000
3980
4480
8380
8200
8200
4400
3800
ENDCHAR
STARTCHAR uni1EE2
ENCODING 7906
SWIDTH 777 0
DWIDTH 11 0
BBX 10 12 1 -2
BITMAP
3EC0
6340
41C0
8080
8080
8080
8080
4100
6300
3E00
0000
0800
ENDCHAR
STARTCHAR uni1EE3
ENCODING 7907
SWIDTH 602 0
DWIDTH 8 0
BBX 9 9 1 -2
BITMAP
3980
4480
8380
8200
8200
4400
3800
0000
1000
ENDCHAR
STARTCHAR uni1EE4
ENCODING 7908
SWIDTH 719 0
DWIDTH 10 0
BBX 9 12 1 -2
BITMAP
E380
4100
4100
4100
4100
4100
4100
4100
6300
3E00
0000
0800
ENDCHAR
STARTCHAR uni1EE5
ENCODING 7909
SWIDTH 633 0
DWIDTH 9 0
BBX 8 9 0 -2
BITMAP
C6
42
42
42
42
46
3B
00
08
ENDCHAR
STARTCHAR uni1EE8
ENCODING 7912
SWIDTH 719 0
DWIDTH 10 0
BBX 10 12 1 0
BITMAP
0E00
0000
E3C0
4140
41C0
4100
4100
4100
4100
4100
6300
3E00
ENDCHAR
STARTCHAR uni1EE9
ENCODING 7913
SWIDTH 633 0
DWIDTH 9 0
BBX 10 9 0 0
BITMAP
0E00
0000
C6C0
4240
42C0
4200
4200
4600
3B00
ENDCHAR
STARTCHAR uni1EEA
ENCODING 7914
SWIDTH 719 0
DWIDTH 10 0
BBX 10 12 1 0
BITMAP
0E00
0000
E3C0
4140
41C0
4100
4100
4100
4100
4100
6300
3E00
ENDCHAR
STARTCHAR uni1EEB
ENCODING 7915
SWIDTH 633 0
DWIDTH 9 0
BBX 10 9 0 0
BITMAP
0E00
0000
C6C0
4240
42C0
4200
4200
4600
3B00
ENDCHAR
STARTCHAR uni1EEE
ENCODING 7918
SWIDTH 719 0
DWIDTH 10 0
BBX 10 12 1 0
BITMAP
1F00
0000
E3C0
4140
41C0
4100
4100
4100
4100
4100
6300
3E00
ENDCHAR
STARTCHAR uni1EEF
ENCODING 7919
SWIDTH 633 0
DWIDTH 9 0
BBX 10 9 0 0
BITMAP
1F00
0000
C6C0
4240
42C0
4200
4200
4600
3B00
ENDCHAR
STARTCHAR uni1EF0
ENCODING 7920
SWIDTH 719 0
DWIDTH 10 0
BBX 10 12 1 -2
BITMAP
E3C0
4140
41C0
4100
4100
4100
4100
4100
6300
3E00
0000
0800
ENDCHAR
STARTCHAR uni1EF1
ENCODING 7921
SWIDTH 633 0
DWIDTH 9 0
BBX 10 9 0 -2
BITMAP
C6C0
4240
42C0
4200
4200
4600
3B00
0000
0800
ENDCHAR
STARTCHAR Ygrave
ENCODING 7922
SWIDTH 678 0
DWIDTH 9 0
BBX 9 12 0 0
BITMAP
1C00
0000
F380
6100
2300
1200
0C00
0800
0800
0800
0800
1C00
ENDCHAR
STARTCHAR ygrave
ENCODING 7923
SWIDTH 551 0
DWIDTH 8 0
BBX 8 12 0 -3
BITMAP
1C
00
F3
43
22
26
14
1C
18
08
10
70
ENDCHAR
STARTCHAR uni1EF4
ENCODING 7924
SWIDTH 678 0
DWIDTH 9 0
BBX 9 12 0 -2
BITMAP
F380
6100
2300
1200
0C00
0800
0800
0800
0800
1C00
0000
0800
ENDCHAR
STARTCHAR uni1EF5
ENCODING 7925
SWIDTH 551 0
DWIDTH 8 0
BBX 8 12 0 -5
BITMAP
F3
43
22
26
14
1C
18
08
10
70
00
10
ENDCHAR
STARTCHAR uni1EF8
ENCODING 7928
SWIDTH 678 0
DWIDTH 9 0
BBX 9 12 0 0
BITMAP
3E00
0000
F380
6100
2300
1200
0C00
0800
0800
0800
0800
1C00
ENDCHAR
STARTCHAR uni1EF9
ENCODING 7929
SWIDTH 551 0
DWIDTH 8 0
BBX 8 12 0 -3
BITMAP
3E
00
F3
43
22
26
14
1C
18
08
10
70
ENDCHAR
STARTCHAR uni2000
ENCODING 8192
SWIDTH 500 0
DWIDTH 7 0
BBX 1 1 0 0
BITMAP
00
ENDCHAR
STARTCHAR uni2001
ENCODING 8193
SWIDTH 1000 0
DWIDTH 14 0
BBX 1 1 0 0
BITMAP
00
ENDCHAR
STARTCHAR uni2002
ENCODING 8194
SWIDTH 500 0
DWIDTH 7 0
BBX 1 1 0 0
BITMAP
00
ENDCHAR
STARTCHAR uni2003
ENCODING 8195
SWIDTH 1000 0
DWIDTH 14 0
BBX 1 1 0 0
BITMAP
00
ENDCHAR
STARTCHAR uni2004
ENCODING 8196
SWIDTH 333 0
DWIDTH 5 0
BBX 1 1 0 0
BITMAP
00
ENDCHAR
STARTCHAR uni2005
ENCODING 8197
SWIDTH 250 0
DWIDTH 3 0
BBX 1 1 0 0
BITMAP
00
ENDCHAR
STARTCHAR uni2006
ENCODING 8198
SWIDTH 167 0
DWIDTH 2 0
BBX 1 1 0 0
BITMAP
00
ENDCHAR
STARTCHAR uni2007
ENCODING 8199
SWIDTH 608 0
DWIDTH 9 0
BBX 1 1 0 0
BITMAP
00
ENDCHAR
STARTCHAR uni2008
ENCODING 8200
SWIDTH 265 0
DWIDTH 4 0
BBX 1 1 0 0
BITMAP
00
ENDCHAR
STARTCHAR uni2009
ENCODING 8201
SWIDTH 200 0
DWIDTH 3 0
BBX 1 1 0 0
BITMAP
00
ENDCHAR
STARTCHAR uni200A
ENCODING 8202
SWIDTH 100 0
DWIDTH 1 0
BBX 1 1 0 0
BITMAP
00
ENDCHAR
STARTCHAR uni200B
ENCODING 8203
SWIDTH 0 0
DWIDTH 0 0
BBX 1 1 0 0
BITMAP
00
ENDCHAR
STARTCHAR uni2010
ENCODING 8208
SWIDTH 325 0
DWIDTH 5 0
BBX 3 1 1 4
BITMAP
E0
ENDCHAR
STARTCHAR uni2011
ENCODING 8209
SWIDTH 325 0
DWIDTH 5 0
BBX 3 1 1 4
BITMAP
E0
ENDCHAR
STARTCHAR figuredash
ENCODING 8210
SWIDTH 500 0
DWIDTH 7 0
BBX 6 1 1 3
BITMAP
FC
ENDCHAR
STARTCHAR endash
ENCODING 8211
SWIDTH 500 0
DWIDTH 7 0
BBX 6 1 1 3
BITMAP
FC
ENDCHAR
STARTCHAR emdash
ENCODING 8212
SWIDTH 1000 0
DWIDTH 14 0
BBX 12 1 1 3
BITMAP
FFF0
ENDCHAR
STARTCHAR afii00208
ENCODING 8213
SWIDTH 1000 0
DWIDTH 14 0
BBX 12 1 1 3
BITMAP
FFF0
ENDCHAR
STARTCHAR quoteleft
ENCODING 8216
SWIDTH 265 0
DWIDTH 4 0
BBX 2 3 1 7
BITMAP
C0
80
C0
ENDCHAR
STARTCHAR quoteright
ENCODING 8217
SWIDTH 265 0
DWIDTH 4 0
BBX 2 3 1 7
BITMAP
C0
40
C0
ENDCHAR
STARTCHAR quotesinglbase
ENCODING 8218
SWIDTH 265 0
DWIDTH 4 0
BBX 2 5 1 -3
BITMAP
C0
C0
40
40
80
ENDCHAR
STARTCHAR quotereversed
ENCODING 8219
SWIDTH 265 0
DWIDTH 4 0
BBX 2 3 1 7
BITMAP
C0
80
C0
ENDCHAR
STARTCHAR quotedblleft
ENCODING 8220
SWIDTH 458 0
DWIDTH 6 0
BBX 4 3 1 7
BITMAP
B0
A0
B0
ENDCHAR
STARTCHAR quotedblright
ENCODING 8221
SWIDTH 458 0
DWIDTH 6 0
BBX 4 3 1 7
BITMAP
90
90
90
ENDCHAR
STARTCHAR quotedblbase
ENCODING 8222
SWIDTH 458 0
DWIDTH 6 0
BBX 4 5 1 -3
BITMAP
90
90
90
90
90
ENDCHAR
STARTCHAR uni201F
ENCODING 8223
SWIDTH 458 0
DWIDTH 6 0
BBX 4 3 1 7
BITMAP
90
90
90
ENDCHAR
STARTCHAR dagger
ENCODING 8224
SWIDTH 608 0
DWIDTH 9 0
BBX 7 13 1 -3
BITMAP
10
10
10
10
FE
10
10
10
10
10
10
10
10
ENDCHAR
STARTCHAR daggerdbl
ENCODING 8225
SWIDTH 608 0
DWIDTH 9 0
BBX 7 13 1 -3
BITMAP
10
10
10
10
FE
10
10
10
10
FE
10
10
10
ENDCHAR
STARTCHAR bullet
ENCODING 8226
SWIDTH 608 0
DWIDTH 9 0
BBX 4 4 2 2
BITMAP
60
F0
F0
60
ENDCHAR
STARTCHAR ellipsis
ENCODING 8230
SWIDTH 1000 0
DWIDTH 14 0
BBX 9 1 3 0
BITMAP
8880
ENDCHAR
STARTCHAR perthousand
ENCODING 8240
SWIDTH 1024 0
DWIDTH 14 0
BBX 14 10 0 0
BITMAP
6180
9100
9200
9400
6C00
1B18
14A4
24A4
44A4
C318
ENDCHAR
STARTCHAR guilsinglleft
ENCODING 8249
SWIDTH 339 0
DWIDTH 5 0
BBX 3 7 1 0
BITMAP
20
40
40
80
40
60
20
ENDCHAR
STARTCHAR guilsinglright
ENCODING 8250
SWIDTH 339 0
DWIDTH 5 0
BBX 3 7 1 0
BITMAP
80
C0
40
20
40
40
80
ENDCHAR
STARTCHAR fraction
ENCODING 8260
SWIDTH 36 0
DWIDTH 1 0
BBX 9 10 -3 0
BITMAP
0180
0100
0200
0400
0C00
1800
1000
2000
4000
C000
ENDCHAR
STARTCHAR oneinferior
ENCODING 8321
SWIDTH 365 0
DWIDTH 5 0
BBX 3 6 -8 -3
BITMAP
C0
40
40
40
40
E0
ENDCHAR
STARTCHAR twoinferior
ENCODING 8322
SWIDTH 365 0
DWIDTH 5 0
BBX 4 6 -8 -3
BITMAP
E0
90
10
60
C0
F0
ENDCHAR
STARTCHAR threeinferior
ENCODING 8323
SWIDTH 365 0
DWIDTH 5 0
BBX 4 6 -8 -3
BITMAP
F0
90
60
30
90
E0
ENDCHAR
STARTCHAR uni20A5
ENCODING 8357
SWIDTH 946 0
DWIDTH 13 0
BBX 13 13 0 -3
BITMAP
0040
0080
0080
DDE0
6310
4310
4210
4610
4610
E738
0800
0800
1000
ENDCHAR
STARTCHAR uni20A6
ENCODING 8358
SWIDTH 751 0
DWIDTH 11 0
BBX 9 10 1 0
BITMAP
C380
6100
7100
7F80
4900
4D00
7F80
4300
4100
E100
ENDCHAR
STARTCHAR uni20A9
ENCODING 8361
SWIDTH 925 0
DWIDTH 13 0
BBX 13 10 0 0
BITMAP
F238
4210
2710
3FE0
2520
2520
1FE0
18C0
18C0
1040
ENDCHAR
STARTCHAR Euro
ENCODING 8364
SWIDTH 695 0
DWIDTH 10 0
BBX 10 10 -1 0
BITMAP
07C0
1840
1040
FF00
2000
2000
FF00
1000
1840
0F80
ENDCHAR
STARTCHAR uni20AD
ENCODING 8365
SWIDTH 708 0
DWIDTH 10 0
BBX 10 10 0 0
BITMAP
E780
4300
4400
5800
FFC0
5000
4C00
4600
4300
E7C0
ENDCHAR
STARTCHAR uni2103
ENCODING 8451
SWIDTH 941 0
DWIDTH 14 0
BBX 11 10 2 0
BITMAP
E3E0
6C20
0820
1000
1000
1000
1000
0800
0C20
07C0
ENDCHAR
STARTCHAR uni2109
ENCODING 8457
SWIDTH 794 0
DWIDTH 12 0
BBX 9 10 2 0
BITMAP
FF80
7080
1000
1100
1F00
1100
1000
1000
1000
3C00
ENDCHAR
STARTCHAR trademark
ENCODING 8482
SWIDTH 904 0
DWIDTH 13 0
BBX 12 5 0 5
BITMAP
FF70
2360
22E0
22A0
7630
ENDCHAR
STARTCHAR uni212A
ENCODING 8490
SWIDTH 708 0
DWIDTH 10 0
BBX 10 10 0 0
BITMAP
E780
4300
4400
5800
7000
5000
4C00
4600
4300
E7C0
ENDCHAR
STARTCHAR uni212B
ENCODING 8491
SWIDTH 744 0
DWIDTH 10 0
BBX 10 13 0 0
BITMAP
0C00
1200
0C00
0800
0C00
1C00
1400
1200
2200
3F00
4100
4180
E3C0
ENDCHAR
STARTCHAR uni2132
ENCODING 8498
SWIDTH 548 0
DWIDTH 8 0
BBX 7 10 0 0
BITMAP
1E
04
04
04
44
7C
44
04
84
FE
ENDCHAR
STARTCHAR universal
ENCODING 8704
SWIDTH 744 0
DWIDTH 10 0
BBX 10 10 0 0
BITMAP
E3C0
4180
4100
3F00
2200
1200
1400
1C00
0C00
0800
ENDCHAR
STARTCHAR existential
ENCODING 8707
SWIDTH 566 0
DWIDTH 8 0
BBX 6 10 1 0
BITMAP
FC
88
08
48
78
48
08
08
88
FC
ENDCHAR
STARTCHAR uni2204
ENCODING 8708
SWIDTH 566 0
DWIDTH 8 0
BBX 7 13 1 -1
BITMAP
02
04
FC
88
08
58
78
78
28
28
C8
FC
80
ENDCHAR
STARTCHAR minus
ENCODING 8722
SWIDTH 608 0
DWIDTH 9 0
BBX 8 1 0 3
BITMAP
FF
ENDCHAR
STARTCHAR fraction
ENCODING 8725
SWIDTH 36 0
DWIDTH 1 0
BBX 9 10 -3 0
BITMAP
0180
0100
0200
0400
0C00
1800
1000
2000
4000
C000
ENDCHAR
STARTCHAR periodcentered
ENCODING 8729
SWIDTH 608 0
DWIDTH 9 0
BBX 1 1 4 4
BITMAP
80
ENDCHAR
STARTCHAR uni2236
ENCODING 8758
SWIDTH 265 0
DWIDTH 4 0
BBX 1 7 1 0
BITMAP
80
00
00
00
00
00
80
ENDCHAR
STARTCHAR uni2259
ENCODING 8793
SWIDTH 608 0
DWIDTH 9 0
BBX 8 6 0 2
BITMAP
3E
00
FF
00
00
FF
ENDCHAR
STARTCHAR uni225A
ENCODING 8794
SWIDTH 608 0
DWIDTH 9 0
BBX 8 6 0 2
BITMAP
3E
00
FF
00
00
FF
ENDCHAR
STARTCHAR notequal
ENCODING 8800
SWIDTH 608 0
DWIDTH 9 0
BBX 8 13 0 -2
BITMAP
01
02
02
04
04
FF
08
18
FF
10
20
20
40
ENDCHAR
STARTCHAR equivalence
ENCODING 8801
SWIDTH 608 0
DWIDTH 9 0
BBX 8 5 0 1
BITMAP
FF
00
FF
00
FF
ENDCHAR
STARTCHAR uni2262
ENCODING 8802
SWIDTH 608 0
DWIDTH 9 0
BBX 8 13 0 -3
BITMAP
01
02
02
04
FF
0C
FF
18
FF
10
20
20
40
ENDCHAR
STARTCHAR lessequal
ENCODING 8804
SWIDTH 608 0
DWIDTH 9 0
BBX 8 10 0 -2
BITMAP
01
06
18
E0
60
18
06
01
00
FF
ENDCHAR
STARTCHAR greaterequal
ENCODING 8805
SWIDTH 608 0
DWIDTH 9 0
BBX 8 10 0 -2
BITMAP
80
60
18
06
07
18
60
80
00
FF
ENDCHAR
STARTCHAR uni226E
ENCODING 8814
SWIDTH 608 0
DWIDTH 9 0
BBX 8 13 0 -2
BITMAP
01
02
02
05
06
1C
E8
78
18
16
21
20
40
ENDCHAR
STARTCHAR uni226F
ENCODING 8815
SWIDTH 608 0
DWIDTH 9 0
BBX 8 13 0 -2
BITMAP
01
02
02
84
64
1C
0E
1F
18
70
A0
20
40
ENDCHAR
STARTCHAR uni2270
ENCODING 8816
SWIDTH 608 0
DWIDTH 9 0
BBX 8 13 0 -3
BITMAP
01
02
03
06
1C
EC
68
18
16
11
20
FF
40
ENDCHAR
STARTCHAR uni2271
ENCODING 8817
SWIDTH 608 0
DWIDTH 9 0
BBX 8 13 0 -3
BITMAP
01
02
82
64
1C
0E
0F
18
70
90
20
FF
40
ENDCHAR
STARTCHAR fi
ENCODING -1
SWIDTH 657 0
DWIDTH 9 0
BBX 8 11 1 0
BITMAP
38
4A
48
40
FE
42
42
42
42
42
F7
ENDCHAR
STARTCHAR fl
ENCODING -1
SWIDTH 663 0
DWIDTH 9 0
BBX 8 11 1 0
BITMAP
3E
42
42
42
FA
42
42
42
42
42
E7
ENDCHAR
ENDFONT
